<svg width="10" height="10" viewBox="0 0 10 10" fill="none" xmlns="http://www.w3.org/2000/svg">
<g clip-path="url(#clip0_381_8570)">
<path d="M5 3.33331C5.69035 3.33331 6.25 2.77367 6.25 2.08331C6.25 1.39296 5.69035 0.833313 5 0.833313C4.30964 0.833313 3.75 1.39296 3.75 2.08331C3.75 2.77367 4.30964 3.33331 5 3.33331ZM5 3.33331V9.16665M5 9.16665C3.89493 9.16665 2.83512 8.72766 2.05372 7.94626C1.27232 7.16486 0.833328 6.10505 0.833328 4.99998H2.08333M5 9.16665C6.10506 9.16665 7.16487 8.72766 7.94627 7.94626C8.72768 7.16486 9.16666 6.10505 9.16666 4.99998H7.91666" stroke="black" stroke-opacity="0.8" stroke-linecap="round" stroke-linejoin="round"/>
</g>
<defs>
<clipPath id="clip0_381_8570">
<rect width="10" height="10" fill="white"/>
</clipPath>
</defs>
</svg>
