<svg width="20" height="20" viewBox="0 0 20 20" fill="none" xmlns="http://www.w3.org/2000/svg">
<path d="M12.5418 4.66683C13.3557 4.82563 14.1038 5.22371 14.6902 5.81011C15.2766 6.39651 15.6746 7.14455 15.8334 7.9585M12.5418 1.3335C14.2328 1.52136 15.8098 2.27864 17.0136 3.481C18.2175 4.68336 18.9768 6.25934 19.1668 7.95016M18.3334 14.6002V17.1002C18.3344 17.3322 18.2868 17.562 18.1939 17.7746C18.1009 17.9873 17.9645 18.1782 17.7935 18.335C17.6225 18.4919 17.4206 18.6114 17.2007 18.6858C16.9809 18.7601 16.7479 18.7877 16.5168 18.7668C13.9525 18.4882 11.4893 17.6119 9.32511 16.2085C7.31163 14.929 5.60455 13.222 4.32511 11.2085C2.91676 9.0345 2.04031 6.55932 1.76677 3.9835C1.74595 3.75305 1.77334 3.5208 1.84719 3.30152C1.92105 3.08224 2.03975 2.88074 2.19575 2.70985C2.35174 2.53896 2.54161 2.40242 2.75327 2.30893C2.96492 2.21544 3.19372 2.16705 3.42511 2.16683H5.92511C6.32953 2.16285 6.7216 2.30606 7.02824 2.56977C7.33488 2.83349 7.53517 3.1997 7.59177 3.60016C7.69729 4.40022 7.89298 5.18577 8.17511 5.94183C8.28723 6.2401 8.31149 6.56426 8.24503 6.8759C8.17857 7.18753 8.02416 7.47359 7.80011 7.70016L6.74177 8.7585C7.92807 10.8448 9.65549 12.5722 11.7418 13.7585L12.8001 12.7002C13.0267 12.4761 13.3127 12.3217 13.6244 12.2552C13.936 12.1888 14.2602 12.213 14.5584 12.3252C15.3145 12.6073 16.1001 12.803 16.9001 12.9085C17.3049 12.9656 17.6746 13.1695 17.9389 13.4814C18.2032 13.7933 18.3436 14.1915 18.3334 14.6002Z" stroke="#1E1E1E" stroke-width="2" stroke-linecap="round" stroke-linejoin="round"/>
</svg>
