<svg width="10" height="10" viewBox="0 0 10 10" fill="none" xmlns="http://www.w3.org/2000/svg">
<g clip-path="url(#clip0_381_8573)">
<path d="M8.75 2.08331C8.75 2.77367 7.07107 3.33331 5 3.33331C2.92893 3.33331 1.25 2.77367 1.25 2.08331M8.75 2.08331C8.75 1.39296 7.07107 0.833313 5 0.833313C2.92893 0.833313 1.25 1.39296 1.25 2.08331M8.75 2.08331V7.91665C8.75 8.60831 7.08333 9.16665 5 9.16665C2.91667 9.16665 1.25 8.60831 1.25 7.91665V2.08331M8.75 4.99998C8.75 5.69165 7.08333 6.24998 5 6.24998C2.91667 6.24998 1.25 5.69165 1.25 4.99998" stroke="black" stroke-opacity="0.8" stroke-linecap="round" stroke-linejoin="round"/>
</g>
<defs>
<clipPath id="clip0_381_8573">
<rect width="10" height="10" fill="white"/>
</clipPath>
</defs>
</svg>
