<svg width="20" height="20" viewBox="0 0 20 20" fill="none" xmlns="http://www.w3.org/2000/svg">
<path d="M5.83329 3.33317C5.83329 2.89114 6.00889 2.46722 6.32145 2.15466C6.63401 1.8421 7.05793 1.6665 7.49996 1.6665H12.5C12.942 1.6665 13.3659 1.8421 13.6785 2.15466C13.991 2.46722 14.1666 2.89114 14.1666 3.33317V4.99984H17.5C17.721 4.99984 17.9329 5.08763 18.0892 5.24392C18.2455 5.4002 18.3333 5.61216 18.3333 5.83317C18.3333 6.05418 18.2455 6.26615 18.0892 6.42243C17.9329 6.57871 17.721 6.6665 17.5 6.6665H16.6091L15.8866 16.7848C15.8567 17.2053 15.6685 17.5988 15.3601 17.8861C15.0516 18.1734 14.6457 18.3332 14.2241 18.3332H5.77496C5.35341 18.3332 4.94751 18.1734 4.63903 17.8861C4.33055 17.5988 4.14239 17.2053 4.11246 16.7848L3.39163 6.6665H2.49996C2.27895 6.6665 2.06698 6.57871 1.9107 6.42243C1.75442 6.26615 1.66663 6.05418 1.66663 5.83317C1.66663 5.61216 1.75442 5.4002 1.9107 5.24392C2.06698 5.08763 2.27895 4.99984 2.49996 4.99984H5.83329V3.33317ZM7.49996 4.99984H12.5V3.33317H7.49996V4.99984ZM5.06163 6.6665L5.77579 16.6665H14.225L14.9391 6.6665H5.06163ZM8.33329 8.33317C8.55431 8.33317 8.76627 8.42097 8.92255 8.57725C9.07883 8.73353 9.16663 8.94549 9.16663 9.1665V14.1665C9.16663 14.3875 9.07883 14.5995 8.92255 14.7558C8.76627 14.912 8.55431 14.9998 8.33329 14.9998C8.11228 14.9998 7.90032 14.912 7.74404 14.7558C7.58776 14.5995 7.49996 14.3875 7.49996 14.1665V9.1665C7.49996 8.94549 7.58776 8.73353 7.74404 8.57725C7.90032 8.42097 8.11228 8.33317 8.33329 8.33317ZM11.6666 8.33317C11.8876 8.33317 12.0996 8.42097 12.2559 8.57725C12.4122 8.73353 12.5 8.94549 12.5 9.1665V14.1665C12.5 14.3875 12.4122 14.5995 12.2559 14.7558C12.0996 14.912 11.8876 14.9998 11.6666 14.9998C11.4456 14.9998 11.2337 14.912 11.0774 14.7558C10.9211 14.5995 10.8333 14.3875 10.8333 14.1665V9.1665C10.8333 8.94549 10.9211 8.73353 11.0774 8.57725C11.2337 8.42097 11.4456 8.33317 11.6666 8.33317Z" fill="url(#paint0_linear_381_5204)"/>
<defs>
<linearGradient id="paint0_linear_381_5204" x1="1.66663" y1="9.99984" x2="18.3333" y2="9.99984" gradientUnits="userSpaceOnUse">
<stop stop-color="#91000D"/>
<stop offset="1" stop-color="#BB002D"/>
</linearGradient>
</defs>
</svg>
