<svg width="27" height="27" viewBox="0 0 27 27" fill="none" xmlns="http://www.w3.org/2000/svg">
<path d="M12.375 4.00275V5.625C12.375 5.92337 12.4935 6.20952 12.7045 6.4205C12.9155 6.63147 13.2016 6.75 13.5 6.75C13.7984 6.75 14.0845 6.63147 14.2955 6.4205C14.5065 6.20952 14.625 5.92337 14.625 5.625V4.00275C16.7577 4.25598 18.7432 5.21947 20.2619 6.73813C21.7805 8.25679 22.744 10.2423 22.9972 12.375H21.375C21.0766 12.375 20.7905 12.4935 20.5795 12.7045C20.3685 12.9155 20.25 13.2016 20.25 13.5C20.25 13.7984 20.3685 14.0845 20.5795 14.2955C20.7905 14.5065 21.0766 14.625 21.375 14.625H22.995C22.743 16.6691 21.8205 18.504 20.475 19.9575C20.3228 20.1216 20.2421 20.3394 20.2505 20.5631C20.259 20.7867 20.3559 20.9978 20.52 21.15C20.6841 21.3022 20.9019 21.3829 21.1256 21.3745C21.3492 21.366 21.5603 21.2691 21.7125 21.105C23.5609 19.1081 24.75 16.4621 24.75 13.5C24.75 7.28663 19.7134 2.25 13.5 2.25C7.28662 2.25 2.25 7.28663 2.25 13.5C2.25 16.4621 3.43912 19.1081 5.2875 21.105C5.36285 21.1863 5.45346 21.2519 5.55416 21.2981C5.65487 21.3443 5.7637 21.3703 5.87443 21.3745C5.98516 21.3787 6.09564 21.361 6.19954 21.3225C6.30344 21.284 6.39874 21.2253 6.48 21.15C6.56125 21.0747 6.62687 20.984 6.67311 20.8833C6.71935 20.7826 6.7453 20.6738 6.74947 20.5631C6.75365 20.4523 6.73598 20.3419 6.69746 20.238C6.65895 20.1341 6.60035 20.0388 6.525 19.9575C5.1795 18.5051 4.257 16.6703 4.005 14.625H5.625C5.92337 14.625 6.20952 14.5065 6.42049 14.2955C6.63147 14.0845 6.75 13.7984 6.75 13.5C6.75 13.2016 6.63147 12.9155 6.42049 12.7045C6.20952 12.4935 5.92337 12.375 5.625 12.375H4.00275C4.20802 10.6236 4.89585 8.96358 5.9895 7.58025L7.07962 8.6715C7.18415 8.77595 7.30822 8.85879 7.44476 8.91529C7.5813 8.97179 7.72763 9.00084 7.8754 9.00079C8.02316 9.00074 8.16947 8.97158 8.30597 8.91499C8.44247 8.85839 8.56649 8.77546 8.67094 8.67094C8.77539 8.56641 8.85823 8.44234 8.91473 8.3058C8.97123 8.16926 9.00028 8.02293 9.00023 7.87517C9.00017 7.7274 8.97102 7.58109 8.91442 7.44459C8.85783 7.30809 8.7749 7.18408 8.67037 7.07963L7.58025 5.9895C8.96358 4.89585 10.6236 4.20802 12.375 4.00275ZM18.8539 7.46325C18.7231 7.36256 18.562 7.30938 18.397 7.31245C18.232 7.31551 18.0729 7.37465 17.946 7.48013L17.7007 7.686C16.8162 8.42882 15.9346 9.17507 15.0559 9.92475C14.3179 10.5548 13.563 11.2073 12.96 11.7394C12.6989 11.9689 12.4405 12.2014 12.1849 12.4369C12.018 12.5863 11.8602 12.7456 11.7124 12.9139C11.5379 13.1287 11.4083 13.3763 11.3314 13.6422C11.2544 13.908 11.2316 14.1865 11.2644 14.4613C11.2971 14.7361 11.3847 15.0016 11.5219 15.2419C11.6592 15.4822 11.8433 15.6925 12.0634 15.8603C12.5115 16.2058 13.0767 16.3631 13.639 16.2989C14.2013 16.2346 14.7164 15.9538 15.075 15.516C15.174 15.3945 15.3056 15.183 15.4406 14.9569C15.5846 14.715 15.7612 14.4056 15.957 14.0591C16.3474 13.3616 16.821 12.4931 17.2789 11.646C17.8227 10.6368 18.3623 9.62546 18.8977 8.61188L19.0451 8.33175C19.1215 8.18785 19.1443 8.02145 19.1092 7.86233C19.0742 7.70321 18.9837 7.56175 18.8539 7.46325Z" fill="black"/>
</svg>
