<svg width="24" height="19" viewBox="0 0 24 19" fill="none" xmlns="http://www.w3.org/2000/svg">
<g clip-path="url(#clip0_381_8280)">
<path d="M5.45456 18.4116V9.18687L2.57878 6.56959L0 5.11719V16.7837C0 17.6845 0.733594 18.4116 1.63641 18.4116H5.45456Z" fill="#4285F4"/>
<path d="M18.5454 18.4115H22.3636C23.2691 18.4115 24 17.6817 24 16.7836V5.11719L21.0791 6.78074L18.5454 9.18677V18.4115Z" fill="#34A853"/>
<path d="M5.45454 9.18646L5.06323 5.58208L5.45454 2.13232L12 7.01601L18.5454 2.13232L18.9831 5.39583L18.5454 9.18646L12 14.0701L5.45454 9.18646Z" fill="#EA4335"/>
<path d="M18.5454 2.13247V9.1866L24 5.11692V2.94639C24 0.933277 21.69 -0.21434 20.0728 0.992966L18.5454 2.13247Z" fill="#FBBC04"/>
<path d="M0 5.11697L2.50866 6.98878L5.45456 9.18665V2.13251L3.92719 0.993009C2.30719 -0.21439 0 0.93332 0 2.94633V5.11697Z" fill="#C5221F"/>
</g>
<defs>
<clipPath id="clip0_381_8280">
<rect width="24" height="18" fill="white" transform="translate(0 0.5)"/>
</clipPath>
</defs>
</svg>
