<svg width="21" height="21" viewBox="0 0 21 21" fill="none" xmlns="http://www.w3.org/2000/svg">
<path fill-rule="evenodd" clip-rule="evenodd" d="M5.5 3.5H15.5C16.0304 3.5 16.5391 3.71071 16.9142 4.08579C17.2893 4.46086 17.5 4.96957 17.5 5.5V15.5C17.5 16.0304 17.2893 16.5391 16.9142 16.9142C16.5391 17.2893 16.0304 17.5 15.5 17.5H5.5C4.96957 17.5 4.46086 17.2893 4.08579 16.9142C3.71071 16.5391 3.5 16.0304 3.5 15.5V5.5C3.5 4.96957 3.71071 4.46086 4.08579 4.08579C4.46086 3.71071 4.96957 3.5 5.5 3.5Z" stroke="black" stroke-opacity="0.4" stroke-linecap="round" stroke-linejoin="round"/>
<path d="M17.5 13.5L14.5 10.5L11.5 13.485M15.5 17.5L6.5 8.5L3.5 11.5" stroke="black" stroke-opacity="0.4" stroke-linecap="round" stroke-linejoin="round"/>
<path d="M14 8C14.5523 8 15 7.55228 15 7C15 6.44772 14.5523 6 14 6C13.4477 6 13 6.44772 13 7C13 7.55228 13.4477 8 14 8Z" fill="black" fill-opacity="0.4"/>
</svg>
