<svg width="15" height="15" viewBox="0 0 15 15" fill="none" xmlns="http://www.w3.org/2000/svg">
<path d="M7.50013 0C5.04748 0 3.03748 2.004 3.03748 4.4499C3.03748 5.3976 3.34018 6.2784 3.85243 7.0023L6.95548 12.3668C7.39003 12.9345 7.67893 12.8267 8.04028 12.3368L11.463 6.51225C11.532 6.38715 11.5863 6.25395 11.6335 6.1179C11.8507 5.58862 11.9624 5.02201 11.9623 4.4499C11.9625 2.004 9.95308 0 7.50013 0ZM7.50013 2.085C8.82103 2.085 9.87133 3.1329 9.87133 4.4499C9.87133 5.7669 8.82103 6.81435 7.50013 6.81435C6.17938 6.81435 5.12863 5.76705 5.12863 4.4499C5.12863 3.1329 6.17938 2.08515 7.50013 2.08515" fill="#1E1E1E"/>
<path d="M10.337 7.3362L10.3298 7.3551C10.332 7.3494 10.3338 7.34355 10.3361 7.33785L10.337 7.3362ZM5.1009 10.3586C2.982 10.658 1.5 11.3742 1.5 12.4286C1.5 13.8488 3.9762 15 7.5 15C11.0238 15 13.5 13.8488 13.5 12.4286C13.5 11.3742 12.0182 10.658 9.8994 10.3586L9.60585 10.8584C11.2028 11.0799 12.3 11.5455 12.3 12.0858C12.3 12.8433 10.151 13.4572 7.5 13.4572C4.84905 13.4572 2.7 12.8433 2.7 12.0858C2.69985 11.5473 3.7899 11.0822 5.39175 10.8597C5.295 10.6926 5.1978 10.5258 5.1009 10.3586Z" fill="#1E1E1E"/>
</svg>
