<svg width="133" height="61" viewBox="0 0 133 61" fill="none" xmlns="http://www.w3.org/2000/svg">
<path d="M85.9429 42.961C86.0478 42.2566 86.1748 41.642 86.2256 41.0167C86.3622 39.3599 86.556 37.6996 86.5623 36.0392C86.6036 27.3636 86.5941 18.6844 86.5973 10.0088C86.5973 9.54878 86.5877 9.08517 86.521 8.63594C86.3495 7.51106 85.7968 6.92885 84.7899 6.79588C84.4374 6.74916 84.0816 6.75273 83.7259 6.75273C80.3749 6.74914 77.0208 6.74914 73.6698 6.75273C73.2633 6.75273 72.8535 6.75633 72.4533 6.82102C71.602 6.96118 71.0875 7.5398 70.9287 8.48858C70.8525 8.93781 70.827 9.40142 70.8143 9.85784C70.7921 10.6629 70.7953 11.4679 70.7953 12.2693C70.7953 18.3609 70.7826 24.4525 70.7985 30.5441C70.8112 34.6771 70.6873 38.8172 71.4845 42.9035C71.294 42.9897 71.1574 43.1047 71.0208 43.1083C66.2468 43.1263 61.4729 43.1335 56.7021 43.1335C56.5116 43.1335 56.321 43.0221 56.0796 42.9502C56.1812 42.2314 56.3082 41.5594 56.3622 40.8837C56.4956 39.2269 56.6831 37.5666 56.6894 35.9062C56.7212 26.3681 56.7053 16.83 56.7021 7.28824C56.7021 5.09957 56.5274 2.92887 56.1145 0.78692C56.0828 0.625196 56.1113 0.449092 56.1113 0.175958C56.3432 0.12205 56.5751 0.0214245 56.8038 0.0214245C60.9679 0.0142368 65.132 0.0178307 69.2961 0.0214245C69.4454 0.0214245 69.5946 0.0717422 69.8392 0.114869C69.9059 0.45988 70.0012 0.83004 70.0393 1.2074C70.1378 2.1418 70.1568 3.09418 70.4586 4.28734C70.7762 3.50747 70.9859 3.00434 71.1891 2.49401C71.818 0.919893 72.9297 0.158006 74.4162 0.035814C74.7212 0.010657 75.0261 0.0106543 75.331 0.0106543C81.782 0.0106543 88.2299 0.00345519 94.6809 0.0214245C95.4877 0.0250184 96.2976 0.143613 97.098 0.265805C98.305 0.452686 99.1213 1.24695 99.6264 2.48324C99.7915 2.88575 99.9726 3.27748 100.198 3.78422C100.627 3.43202 100.757 3.00073 100.932 2.61978C101.764 0.797693 103.082 -0.0109194 104.889 -0.000137797C110.375 0.032207 115.86 0.0106359 121.346 0.0142298C122.623 0.0142298 123.874 0.237056 125.094 0.671914C127.381 1.48772 128.912 3.19121 129.753 5.72489C130.335 7.4751 130.462 9.30439 130.532 11.1445C130.557 11.777 130.544 12.4095 130.544 13.042C130.544 19.0186 130.544 24.9952 130.544 30.9718C130.544 32.0644 130.551 33.1569 130.56 34.2458C130.592 37.1173 130.64 39.9888 131.237 42.8388C130.843 43.2664 130.373 43.155 129.944 43.1586C126.898 43.1694 123.849 43.1658 120.803 43.1658C119.583 43.1658 118.363 43.173 117.147 43.1586C116.75 43.155 116.353 43.0939 115.867 43.0508C115.883 42.7022 115.867 42.4291 115.911 42.1703C116.27 40.1937 116.442 38.1955 116.448 36.1793C116.461 31.2378 116.47 26.2962 116.477 21.3546C116.48 17.7931 116.48 14.228 116.473 10.6665C116.473 10.0914 116.48 9.51284 116.426 8.945C116.292 7.52902 115.711 6.90368 114.479 6.77789C114.326 6.76352 114.174 6.75633 114.021 6.75633C110.416 6.75633 106.808 6.75274 103.203 6.75633C102.949 6.75633 102.695 6.76352 102.444 6.80305C101.504 6.94681 100.948 7.48948 100.802 8.5317C100.697 9.26485 100.681 10.0196 100.678 10.7635C100.668 16.4526 100.662 22.1417 100.671 27.8308C100.678 30.8173 100.713 33.8074 100.741 36.7939C100.76 38.695 100.935 40.5782 101.291 42.4363C101.323 42.598 101.294 42.7705 101.294 43.0041C100.995 43.0544 100.703 43.1407 100.408 43.1514C96.5676 43.3204 87.3627 43.2089 85.9429 42.961Z" fill="white"/>
<path d="M38.0305 43.0047C37.6049 41.7576 37.6366 40.4099 37.3285 39.1916C37.0522 39.0478 36.9092 39.1592 36.7981 39.3857C36.5249 39.9355 36.2772 40.5069 35.9627 41.0245C35.2353 42.232 34.219 42.9292 32.9262 43.0622C32.3195 43.1233 31.7097 43.152 31.0998 43.1556C25.5128 43.1628 19.9257 43.1664 14.3386 43.1556C13.0205 43.152 11.7055 43.1161 10.4064 42.7459C8.17345 42.1026 6.652 40.5752 5.75311 38.1997C5.0448 36.3237 4.73037 34.3399 4.61602 32.3345C4.42227 28.9491 4.34285 25.5564 4.8447 22.189C5.00352 21.118 5.21633 20.0435 5.51807 19.012C6.49954 15.6553 8.62765 13.8656 11.6928 13.4882C12.6996 13.3625 13.7192 13.3481 14.7356 13.3481C20.7801 13.3373 26.8246 13.3481 32.869 13.3337C33.5265 13.3337 34.1872 13.2726 34.8352 13.154C35.5053 13.0318 35.9532 12.5179 35.9881 11.7524C36.0453 10.4945 36.058 9.22589 35.9945 7.96804C35.95 7.10551 35.4831 6.62394 34.7367 6.4766C34.3396 6.39753 33.9267 6.38675 33.5233 6.38675C26.31 6.38316 19.0967 6.39035 11.8865 6.39035C10.1014 6.39035 8.3386 6.57003 6.60436 7.07317C6.4646 7.1127 6.30579 7.07677 6.07074 7.07677C5.88017 5.8836 6.20098 4.72638 6.33438 3.55478C6.46143 2.4263 6.61707 1.30501 6.76953 0.10825C7.25868 0.0723113 7.65572 0.0148059 8.04958 0.0148059C18.9188 0.011212 29.788 0.0148243 40.6573 0.0112305C42.0389 0.0112305 43.392 0.205298 44.707 0.683282C46.9304 1.48831 48.455 3.1343 49.2872 5.59969C49.9288 7.50804 50.1257 9.50263 50.1321 11.5224C50.148 16.2914 50.1385 21.0641 50.1385 25.8332C50.1385 27.1557 50.1289 28.4783 50.1416 29.7972C50.1829 34.1566 49.9384 38.5339 50.8404 42.9184C50.5355 43.0118 50.3068 43.1412 50.0781 43.1412C46.2698 43.1556 42.4582 43.152 38.6499 43.1448C38.4593 43.1412 38.2623 43.0586 38.0305 43.0047ZM35.9786 20.0506C35.4577 20.0147 35.1051 19.968 34.7557 19.968C30.3375 19.9644 25.9161 19.9644 21.4979 19.9644C21.2438 19.9644 20.9897 19.9572 20.7356 19.9824C19.2809 20.1225 18.6774 20.8161 18.5345 22.4909C18.5249 22.6059 18.5186 22.7209 18.5186 22.8359C18.5186 26.4585 18.4837 30.0775 18.5313 33.7001C18.5599 35.7343 19.265 36.4423 21.085 36.5177C21.1358 36.5213 21.1867 36.5177 21.2375 36.5177C25.2999 36.5177 29.3656 36.5177 33.428 36.5142C33.733 36.5142 34.0411 36.4998 34.3365 36.4315C35.356 36.2015 35.8293 35.6516 35.9786 34.4764C36.0485 33.9086 36.0644 33.33 36.0644 32.7586C36.0739 29.0784 36.0771 25.4019 36.0707 21.7218C36.0707 21.2186 36.0167 20.7119 35.9786 20.0506Z" fill="white"/>
<path d="M0 53.2862C0 51.9385 0 50.7418 0 49.4552C0.317628 49.3905 0.603489 49.3006 0.889354 49.2827C1.34674 49.2539 1.80413 49.2719 2.26151 49.2719C44.9316 49.2719 87.6018 49.2719 130.272 49.2755C130.974 49.2755 131.682 49.1964 132.476 49.3905C132.654 50.6699 132.546 51.9098 132.543 53.2251C132.194 53.297 131.911 53.3904 131.622 53.412C131.168 53.4408 130.707 53.4228 130.25 53.4228C87.5795 53.4228 44.9094 53.4228 2.23927 53.4192C1.54049 53.4192 0.832185 53.5055 0 53.2862Z" fill="white"/>
<path d="M0.368281 60.1888C0.253935 58.9166 0.298393 57.6839 0.358743 56.3469C0.739896 56.3002 1.02895 56.2427 1.32116 56.232C1.77855 56.214 2.23592 56.2248 2.6933 56.2248C45.3158 56.2248 87.9351 56.2248 130.558 56.2248C131.263 56.2248 131.968 56.2248 132.724 56.2248C133.172 57.5976 132.953 58.8734 132.902 60.2211C132.511 60.293 132.222 60.3685 131.93 60.39C131.577 60.4188 131.218 60.4008 130.863 60.4008C88.0368 60.4008 45.2142 60.4008 2.38839 60.3972C1.74361 60.3972 1.07977 60.505 0.368281 60.1888Z" fill="white"/>
</svg>
