<svg width="133" height="61" viewBox="0 0 133 61" fill="none" xmlns="http://www.w3.org/2000/svg">
<path d="M85.943 42.961C86.0478 42.2566 86.1749 41.642 86.2257 41.0167C86.3623 39.3599 86.556 37.6996 86.5624 36.0392C86.6037 27.3636 86.5942 18.6844 86.5973 10.0088C86.5973 9.54878 86.5878 9.08517 86.5211 8.63594C86.3496 7.51106 85.7969 6.92885 84.79 6.79588C84.4374 6.74916 84.0817 6.75273 83.726 6.75273C80.375 6.74914 77.0209 6.74914 73.6699 6.75273C73.2633 6.75273 72.8536 6.75633 72.4534 6.82102C71.6021 6.96118 71.0876 7.5398 70.9288 8.48858C70.8525 8.93781 70.8271 9.40142 70.8144 9.85784C70.7921 10.6629 70.7953 11.4679 70.7953 12.2693C70.7953 18.3609 70.7826 24.4525 70.7985 30.5441C70.8112 34.6771 70.6874 38.8172 71.4846 42.9035C71.294 42.9897 71.1574 43.1047 71.0208 43.1083C66.2469 43.1263 61.473 43.1335 56.7022 43.1335C56.5116 43.1335 56.321 43.0221 56.0797 42.9502C56.1813 42.2314 56.3083 41.5594 56.3623 40.8837C56.4957 39.2269 56.6831 37.5666 56.6895 35.9062C56.7212 26.3681 56.7054 16.83 56.7022 7.28824C56.7022 5.09957 56.5275 2.92887 56.1146 0.78692C56.0828 0.625196 56.1114 0.449092 56.1114 0.175958C56.3433 0.12205 56.5751 0.0214245 56.8038 0.0214245C60.9679 0.0142368 65.132 0.0178307 69.2961 0.0214245C69.4454 0.0214245 69.5947 0.0717422 69.8393 0.114869C69.906 0.45988 70.0013 0.83004 70.0394 1.2074C70.1378 2.1418 70.1569 3.09418 70.4586 4.28734C70.7763 3.50747 70.9859 3.00434 71.1892 2.49401C71.8181 0.919893 72.9298 0.158006 74.4163 0.035814C74.7212 0.010657 75.0262 0.0106543 75.3311 0.0106543C81.7821 0.0106543 88.2299 0.00345519 94.6809 0.0214245C95.4877 0.0250184 96.2977 0.143613 97.0981 0.265805C98.3051 0.452686 99.1214 1.24695 99.6264 2.48324C99.7916 2.88575 99.9726 3.27748 100.198 3.78422C100.627 3.43202 100.757 3.00073 100.932 2.61978C101.764 0.797693 103.082 -0.0109194 104.89 -0.000137797C110.375 0.032207 115.86 0.0106359 121.346 0.0142298C122.623 0.0142298 123.874 0.237056 125.094 0.671914C127.381 1.48772 128.912 3.19121 129.753 5.72489C130.335 7.4751 130.462 9.30439 130.532 11.1445C130.557 11.777 130.544 12.4095 130.544 13.042C130.544 19.0186 130.544 24.9952 130.544 30.9718C130.544 32.0644 130.551 33.1569 130.56 34.2458C130.592 37.1173 130.64 39.9888 131.237 42.8388C130.843 43.2664 130.373 43.155 129.944 43.1586C126.898 43.1694 123.849 43.1658 120.803 43.1658C119.583 43.1658 118.363 43.173 117.147 43.1586C116.75 43.155 116.353 43.0939 115.867 43.0508C115.883 42.7022 115.867 42.4291 115.911 42.1703C116.27 40.1937 116.442 38.1955 116.448 36.1793C116.461 31.2378 116.47 26.2962 116.477 21.3546C116.48 17.7931 116.48 14.228 116.473 10.6665C116.473 10.0914 116.48 9.51284 116.426 8.945C116.292 7.52902 115.711 6.90368 114.479 6.77789C114.326 6.76352 114.174 6.75633 114.021 6.75633C110.416 6.75633 106.808 6.75274 103.203 6.75633C102.949 6.75633 102.695 6.76352 102.444 6.80305C101.504 6.94681 100.948 7.48948 100.802 8.5317C100.697 9.26485 100.681 10.0196 100.678 10.7635C100.668 16.4526 100.662 22.1417 100.671 27.8308C100.678 30.8173 100.713 33.8074 100.741 36.7939C100.76 38.695 100.935 40.5782 101.291 42.4363C101.323 42.598 101.294 42.7705 101.294 43.0041C100.995 43.0544 100.703 43.1407 100.408 43.1514C96.5677 43.3204 87.3628 43.2089 85.943 42.961Z" fill="url(#paint0_linear_288_11377)"/>
<path d="M38.0304 43.0047C37.6048 41.7576 37.6366 40.4099 37.3285 39.1916C37.0521 39.0478 36.9092 39.1592 36.798 39.3857C36.5249 39.9355 36.2771 40.5069 35.9626 41.0245C35.2353 42.232 34.2189 42.9292 32.9261 43.0622C32.3195 43.1233 31.7096 43.152 31.0998 43.1556C25.5127 43.1628 19.9256 43.1664 14.3385 43.1556C13.0204 43.152 11.7054 43.1161 10.4063 42.7459C8.17339 42.1026 6.65194 40.5752 5.75305 38.1997C5.04474 36.3237 4.73031 34.3399 4.61596 32.3345C4.42221 28.9491 4.34279 25.5564 4.84464 22.189C5.00346 21.118 5.21627 20.0435 5.51801 19.012C6.49948 15.6553 8.62759 13.8656 11.6927 13.4882C12.6996 13.3625 13.7192 13.3481 14.7356 13.3481C20.78 13.3373 26.8245 13.3481 32.869 13.3337C33.5264 13.3337 34.1871 13.2726 34.8351 13.154C35.5053 13.0318 35.9531 12.5179 35.9881 11.7524C36.0453 10.4945 36.0579 9.22589 35.9944 7.96804C35.9499 7.10551 35.483 6.62394 34.7366 6.4766C34.3396 6.39753 33.9267 6.38675 33.5233 6.38675C26.31 6.38316 19.0966 6.39035 11.8864 6.39035C10.1014 6.39035 8.33854 6.57003 6.60429 7.07317C6.46454 7.1127 6.30573 7.07677 6.07068 7.07677C5.8801 5.8836 6.20091 4.72638 6.33432 3.55478C6.46137 2.4263 6.61701 1.30501 6.76947 0.10825C7.25861 0.0723113 7.65566 0.0148059 8.04952 0.0148059C18.9187 0.011212 29.788 0.0148243 40.6572 0.0112305C42.0389 0.0112305 43.392 0.205298 44.707 0.683282C46.9304 1.48831 48.455 3.1343 49.2872 5.59969C49.9288 7.50804 50.1257 9.50263 50.132 11.5224C50.1479 16.2914 50.1384 21.0641 50.1384 25.8332C50.1384 27.1557 50.1289 28.4783 50.1416 29.7972C50.1829 34.1566 49.9383 38.5339 50.8404 42.9184C50.5354 43.0118 50.3067 43.1412 50.0781 43.1412C46.2697 43.1556 42.4582 43.152 38.6498 43.1448C38.4592 43.1412 38.2623 43.0586 38.0304 43.0047ZM35.9785 20.0506C35.4576 20.0147 35.1051 19.968 34.7557 19.968C30.3375 19.9644 25.9161 19.9644 21.4979 19.9644C21.2438 19.9644 20.9897 19.9572 20.7356 19.9824C19.2808 20.1225 18.6773 20.8161 18.5344 22.4909C18.5249 22.6059 18.5185 22.7209 18.5185 22.8359C18.5185 26.4585 18.4836 30.0775 18.5312 33.7001C18.5598 35.7343 19.265 36.4423 21.085 36.5177C21.1358 36.5213 21.1866 36.5177 21.2374 36.5177C25.2999 36.5177 29.3655 36.5177 33.428 36.5142C33.7329 36.5142 34.041 36.4998 34.3364 36.4315C35.356 36.2015 35.8293 35.6516 35.9785 34.4764C36.0484 33.9086 36.0643 33.33 36.0643 32.7586C36.0738 29.0784 36.077 25.4019 36.0707 21.7218C36.0707 21.2186 36.0167 20.7119 35.9785 20.0506Z" fill="url(#paint1_linear_288_11377)"/>
<path d="M0 53.2862C0 51.9385 0 50.7418 0 49.4552C0.317628 49.3905 0.603489 49.3006 0.889354 49.2827C1.34674 49.2539 1.80413 49.2719 2.26151 49.2719C44.9316 49.2719 87.6018 49.2719 130.272 49.2755C130.974 49.2755 131.682 49.1964 132.476 49.3905C132.654 50.6699 132.546 51.9098 132.543 53.2251C132.194 53.297 131.911 53.3904 131.622 53.412C131.168 53.4408 130.707 53.4228 130.25 53.4228C87.5795 53.4228 44.9094 53.4228 2.23927 53.4192C1.54049 53.4192 0.832185 53.5055 0 53.2862Z" fill="url(#paint2_linear_288_11377)"/>
<path d="M0.368342 60.1888C0.253996 58.9166 0.298454 57.6839 0.358804 56.3469C0.739957 56.3002 1.02901 56.2427 1.32123 56.232C1.77861 56.214 2.23598 56.2248 2.69336 56.2248C45.3159 56.2248 87.9352 56.2248 130.558 56.2248C131.263 56.2248 131.968 56.2248 132.724 56.2248C133.172 57.5976 132.953 58.8734 132.902 60.2211C132.511 60.293 132.222 60.3685 131.93 60.39C131.577 60.4188 131.218 60.4008 130.863 60.4008C88.0368 60.4008 45.2142 60.4008 2.38845 60.3972C1.74367 60.3972 1.07983 60.505 0.368342 60.1888Z" fill="url(#paint3_linear_288_11377)"/>
<defs>
<linearGradient id="paint0_linear_288_11377" x1="56.0797" y1="21.616" x2="131.237" y2="21.616" gradientUnits="userSpaceOnUse">
<stop stop-color="#91000D"/>
<stop offset="1" stop-color="#BB002D"/>
</linearGradient>
<linearGradient id="paint1_linear_288_11377" x1="4.46637" y1="21.5868" x2="50.8404" y2="21.5868" gradientUnits="userSpaceOnUse">
<stop stop-color="#91000D"/>
<stop offset="1" stop-color="#BB002D"/>
</linearGradient>
<linearGradient id="paint2_linear_288_11377" x1="0" y1="51.3477" x2="132.578" y2="51.3477" gradientUnits="userSpaceOnUse">
<stop stop-color="#91000D"/>
<stop offset="1" stop-color="#BB002D"/>
</linearGradient>
<linearGradient id="paint3_linear_288_11377" x1="0.297424" y1="58.3183" x2="133" y2="58.3183" gradientUnits="userSpaceOnUse">
<stop stop-color="#91000D"/>
<stop offset="1" stop-color="#BB002D"/>
</linearGradient>
</defs>
</svg>
