<svg width="20" height="21" viewBox="0 0 20 21" fill="none" xmlns="http://www.w3.org/2000/svg">
<path d="M5.41667 11.75H11.25V10.9167H5.41667V11.75ZM5.41667 9.25H14.5833V8.41667H5.41667V9.25ZM5.41667 6.75H14.5833V5.91667H5.41667V6.75ZM2.5 17.2308V4.34667C2.5 3.96278 2.62861 3.6425 2.88583 3.38583C3.14306 3.12917 3.46306 3.00056 3.84583 3H16.1542C16.5375 3 16.8575 3.12861 17.1142 3.38583C17.3708 3.64306 17.4994 3.96333 17.5 4.34667V13.3208C17.5 13.7042 17.3714 14.0244 17.1142 14.2817C16.8569 14.5389 16.5369 14.6672 16.1542 14.6667H5.06417L2.5 17.2308ZM4.70833 13.8333H16.1542C16.2819 13.8333 16.3994 13.78 16.5067 13.6733C16.6139 13.5667 16.6672 13.4492 16.6667 13.3208V4.34583C16.6667 4.21806 16.6133 4.10056 16.5067 3.99333C16.4 3.88611 16.2825 3.83278 16.1542 3.83333H3.84583C3.71806 3.83333 3.60056 3.88667 3.49333 3.99333C3.38611 4.1 3.33278 4.2175 3.33333 4.34583V15.2042L4.70833 13.8333Z" fill="url(#paint0_linear_612_376)"/>
<defs>
<linearGradient id="paint0_linear_612_376" x1="2.5" y1="10.1154" x2="17.5" y2="10.1154" gradientUnits="userSpaceOnUse">
<stop stop-color="#91000D"/>
<stop offset="1" stop-color="#BB002D"/>
</linearGradient>
</defs>
</svg>
