<svg width="60" height="60" viewBox="0 0 60 60" fill="none" xmlns="http://www.w3.org/2000/svg">
<path d="M38.75 35H36.775L36.075 34.325C37.6374 32.5099 38.7792 30.3719 39.4189 28.064C40.0585 25.7561 40.1801 23.3354 39.775 20.975C38.6 14.025 32.8 8.49997 25.825 7.62497C23.6402 7.34456 21.4212 7.51181 19.3032 8.11652C17.1851 8.72124 15.2123 9.75077 13.5049 11.1424C11.7975 12.5341 10.3913 14.2587 9.37179 16.2113C8.35232 18.1639 7.74099 20.3035 7.57501 22.5H12.625C13.225 17.2 17.425 13 22.775 12.55C29.125 12 35 17.375 35 23.75C35 29.975 29.975 35 23.75 35C23.325 35 22.925 34.925 22.5 34.875V39.925L22.525 39.95C27.025 40.275 31.2 38.775 34.325 36.075L35 36.775V38.75L45.625 49.375C46.65 50.4 48.325 50.4 49.35 49.375C50.375 48.35 50.375 46.675 49.35 45.65L38.75 35Z" fill="url(#paint0_linear_288_13279)"/>
<path d="M15.3 27.925L9.99999 33.225L4.69999 27.925C4.19999 27.425 3.42499 27.425 2.92499 27.925C2.42499 28.425 2.42499 29.2 2.92499 29.7L8.22499 35L2.92499 40.3001C2.42499 40.8001 2.42499 41.575 2.92499 42.075C3.42499 42.575 4.19999 42.575 4.69999 42.075L9.99999 36.775L15.3 42.075C15.8 42.575 16.575 42.575 17.075 42.075C17.575 41.575 17.575 40.8001 17.075 40.3001L11.775 35L17.075 29.7C17.575 29.2 17.575 28.425 17.075 27.925C16.8362 27.6962 16.5182 27.5684 16.1875 27.5684C15.8567 27.5684 15.5388 27.6962 15.3 27.925Z" fill="url(#paint1_linear_288_13279)"/>
<defs>
<linearGradient id="paint0_linear_288_13279" x1="7.57501" y1="28.8183" x2="50.1188" y2="28.8183" gradientUnits="userSpaceOnUse">
<stop stop-color="#91000D"/>
<stop offset="1" stop-color="#BB002D"/>
</linearGradient>
<linearGradient id="paint1_linear_288_13279" x1="2.54999" y1="35" x2="17.45" y2="35" gradientUnits="userSpaceOnUse">
<stop stop-color="#91000D"/>
<stop offset="1" stop-color="#BB002D"/>
</linearGradient>
</defs>
</svg>
