<svg width="15" height="15" viewBox="0 0 15 15" fill="none" xmlns="http://www.w3.org/2000/svg">
<path d="M4.64286 2.49993C2.91857 3.4835 1.78571 5.37279 1.78571 7.49993C1.78571 8.63011 2.12085 9.73491 2.74874 10.6746C3.37664 11.6143 4.26909 12.3467 5.31324 12.7792C6.35739 13.2117 7.50634 13.3249 8.6148 13.1044C9.72326 12.8839 10.7415 12.3397 11.5406 11.5405C12.3398 10.7414 12.884 9.7232 13.1045 8.61473C13.325 7.50627 13.2118 6.35732 12.7793 5.31317C12.3468 4.26902 11.6144 3.37657 10.6747 2.74868C9.73498 2.12078 8.63018 1.78564 7.5 1.78564" stroke="black" stroke-linecap="round" stroke-linejoin="round"/>
<path d="M4.64286 5.35714V2.5H1.78571" stroke="black" stroke-linecap="round" stroke-linejoin="round"/>
</svg>
