<svg width="15" height="15" viewBox="0 0 15 15" fill="none" xmlns="http://www.w3.org/2000/svg">
<path d="M4.53375 11.5588L4.98625 11.8231C5.7493 12.2683 6.61723 12.5019 7.50062 12.5C8.48953 12.5 9.45623 12.2068 10.2785 11.6573C11.1007 11.1079 11.7416 10.327 12.12 9.41342C12.4985 8.49979 12.5975 7.49445 12.4045 6.52455C12.2116 5.55464 11.7354 4.66373 11.0362 3.96447C10.3369 3.2652 9.44598 2.789 8.47607 2.59607C7.50617 2.40315 6.50083 2.50216 5.5872 2.8806C4.67357 3.25904 3.89268 3.8999 3.34327 4.72215C2.79386 5.54439 2.50062 6.51109 2.50062 7.5C2.4988 8.38366 2.73266 9.25183 3.17812 10.015L3.44187 10.4675L3.03375 11.9681L4.53375 11.5588ZM1.25312 13.75L2.09812 10.645C1.54122 9.69058 1.24868 8.60501 1.25062 7.5C1.25062 4.04813 4.04875 1.25 7.50062 1.25C10.9525 1.25 13.7506 4.04813 13.7506 7.5C13.7506 10.9519 10.9525 13.75 7.50062 13.75C6.39609 13.7519 5.31098 13.4596 4.35687 12.9031L1.25312 13.75ZM5.245 4.5675C5.32916 4.56167 5.41312 4.56083 5.49687 4.565C5.53062 4.5675 5.56437 4.57083 5.59812 4.575C5.69749 4.58625 5.80687 4.64687 5.84375 4.73062C6.02999 5.15354 6.21083 5.57854 6.38625 6.00563C6.425 6.10063 6.40187 6.2225 6.32812 6.34125C6.29062 6.40188 6.23187 6.48687 6.16375 6.57375C6.09312 6.66437 5.94124 6.83063 5.94124 6.83063C5.94124 6.83063 5.87937 6.90438 5.90312 6.99625C5.91187 7.03125 5.94062 7.08188 5.96687 7.12438L6.00375 7.18375C6.16374 7.45063 6.37875 7.72125 6.64125 7.97625C6.71625 8.04875 6.78937 8.12313 6.86812 8.1925C7.16062 8.45062 7.49187 8.66125 7.84937 8.8175L7.8525 8.81875C7.90562 8.84187 7.9325 8.85438 8.01 8.8875C8.04875 8.90375 8.08854 8.9175 8.12937 8.92875C8.14437 8.93292 8.15958 8.93521 8.175 8.93563C8.21063 8.93698 8.24606 8.92961 8.2782 8.91414C8.31033 8.89867 8.3382 8.87558 8.35937 8.84687C8.81125 8.29938 8.85312 8.26375 8.85625 8.26375V8.265C8.88764 8.23561 8.92498 8.21331 8.96574 8.19962C9.0065 8.18592 9.04973 8.18115 9.0925 8.18563C9.13083 8.18729 9.1677 8.19562 9.20312 8.21063C9.535 8.3625 10.0781 8.59937 10.0781 8.59937L10.4419 8.7625C10.5031 8.79188 10.5587 8.86125 10.5606 8.92812C10.5631 8.97 10.5669 9.0375 10.5525 9.16125C10.5325 9.32312 10.4837 9.5175 10.435 9.61938C10.4012 9.68866 10.3569 9.75233 10.3037 9.80812C10.2406 9.87429 10.1716 9.93454 10.0975 9.98812C10.0458 10.0265 10.0194 10.0444 10.0194 10.0444C9.94164 10.0937 9.86177 10.1396 9.77999 10.1819C9.619 10.2672 9.44131 10.3162 9.25937 10.3256C9.14374 10.3319 9.02812 10.3406 8.91187 10.3344C8.90687 10.3344 8.55687 10.28 8.55687 10.28C7.6683 10.0462 6.84651 9.60838 6.15687 9.00125C6.01562 8.87688 5.88437 8.74312 5.75062 8.61C5.19562 8.05688 4.77499 7.46 4.51937 6.89625C4.38968 6.61951 4.31942 6.31868 4.31312 6.01313C4.31077 5.63359 4.43503 5.26411 4.66624 4.96312C4.71187 4.90438 4.755 4.84313 4.82937 4.7725C4.90812 4.6975 4.95874 4.6575 5.01312 4.63C5.08564 4.59437 5.16439 4.57315 5.245 4.5675Z" fill="url(#paint0_linear_612_381)"/>
<defs>
<linearGradient id="paint0_linear_612_381" x1="1.25061" y1="7.5" x2="13.7506" y2="7.5" gradientUnits="userSpaceOnUse">
<stop stop-color="#91000D"/>
<stop offset="1" stop-color="#BB002D"/>
</linearGradient>
</defs>
</svg>
