<svg width="200" height="153" viewBox="0 0 200 153" fill="none" xmlns="http://www.w3.org/2000/svg">
<g clip-path="url(#clip0_443_7196)">
<path opacity="0.1" d="M34.1375 22.4983C33.0673 23.7945 32.6552 25.6169 32.1944 27.3301C28.4837 41.1375 19.34 52.2435 8.92687 60.1763C4.5171 63.5365 -0.851573 68.0428 0.113186 74.0675C0.632672 77.303 2.91177 79.6848 4.60498 82.3199C8.1574 87.8378 9.30964 95.3379 7.61643 101.943C5.69082 109.459 0.308481 116.472 1.97435 124.071C3.0016 128.749 6.48958 132.078 9.8428 134.94C15.0741 139.4 20.4721 143.579 26.0367 147.476C29.7668 150.088 33.7352 152.63 38.0825 152.961C41.9103 153.253 45.66 151.801 49.2944 150.369C52.4699 149.115 55.7255 147.811 58.2897 145.301C59.9634 143.662 61.2973 141.547 63.1565 140.206C67.5233 137.056 73.1322 139.052 78.1395 140.401C89.9549 143.566 102.6 142.411 113.843 137.138C131.09 129.049 144.235 112.063 161.105 102.949C168.358 99.0295 176.248 96.5971 182.964 91.5489C186.748 88.6746 190 85.1629 192.573 81.1719C197.651 73.3541 200.396 63.3864 199.603 53.6293C198.811 43.8721 194.368 34.4697 187.39 28.9615C179.92 23.0655 170.485 21.9643 161.986 18.4247C153.213 14.7643 145.405 8.47656 136.716 4.55693C129.681 1.39033 122.025 -0.163825 114.309 0.00852317C106.594 0.180871 99.0147 2.07535 92.1285 5.55292C82.6665 10.3282 73.0794 21.4692 62.5413 22.3151C55.0341 22.8999 40.0003 15.3997 34.1375 22.4983Z" fill="#6C63FF"/>
<path d="M169.542 67.6493C169.542 67.6493 166.698 58.011 170.075 50.9182C171.511 47.9519 171.944 44.6006 171.309 41.3677C170.996 39.8352 170.542 38.3346 169.954 36.8848" stroke="#535461" stroke-width="2" stroke-miterlimit="10"/>
<path d="M172.065 32.4038C172.065 33.585 169.917 37.0095 169.917 37.0095C169.917 37.0095 167.768 33.585 167.768 32.4038C167.747 32.1097 167.786 31.8143 167.884 31.536C167.981 31.2578 168.136 31.0026 168.337 30.7865C168.538 30.5705 168.781 30.3981 169.052 30.2803C169.323 30.1624 169.615 30.1016 169.911 30.1016C170.206 30.1016 170.499 30.1624 170.769 30.2803C171.04 30.3981 171.284 30.5705 171.485 30.7865C171.686 31.0026 171.84 31.2578 171.938 31.536C172.036 31.8143 172.075 32.1097 172.053 32.4038H172.065Z" fill="#6C63FF"/>
<path d="M175.598 38.9447C174.955 39.9367 171.284 41.65 171.284 41.65C171.284 41.65 171.35 37.6134 171.993 36.6213C172.32 36.1877 172.799 35.8939 173.334 35.7991C173.87 35.7043 174.421 35.8156 174.877 36.1106C175.334 36.4055 175.661 36.8622 175.793 37.3885C175.926 37.9148 175.853 38.4716 175.59 38.9466L175.598 38.9447Z" fill="#6C63FF"/>
<path d="M175.444 50.1267C174.387 50.6588 170.366 50.2904 170.366 50.2904C170.366 50.2904 172.465 46.8385 173.522 46.3064C174.023 46.0989 174.584 46.0881 175.092 46.2763C175.601 46.4645 176.019 46.8378 176.264 47.3211C176.508 47.8045 176.56 48.3621 176.409 48.8821C176.259 49.4022 175.916 49.8461 175.451 50.1247L175.444 50.1267Z" fill="#6C63FF"/>
<path d="M173.418 58.5683C172.467 59.27 168.432 59.5877 168.432 59.5877C168.432 59.5877 169.917 55.8318 170.87 55.1282C171.328 54.85 171.875 54.7533 172.401 54.857C172.928 54.9607 173.396 55.2573 173.715 55.6885C174.033 56.1196 174.178 56.6541 174.122 57.1867C174.065 57.7193 173.811 58.2115 173.409 58.5664L173.418 58.5683Z" fill="#6C63FF"/>
<path d="M166.792 41.8784C167.642 42.7009 171.596 43.5546 171.596 43.5546C171.596 43.5546 170.62 39.635 169.778 38.8105C169.582 38.5908 169.342 38.4138 169.074 38.2905C168.806 38.1673 168.516 38.1005 168.221 38.0942C167.926 38.088 167.633 38.1424 167.36 38.2542C167.087 38.366 166.84 38.5326 166.634 38.7439C166.429 38.9551 166.269 39.2063 166.165 39.4818C166.061 39.7574 166.015 40.0513 166.029 40.3454C166.044 40.6395 166.12 40.9274 166.251 41.1911C166.382 41.4549 166.566 41.6888 166.792 41.8784Z" fill="#6C63FF"/>
<path d="M164.548 51.7717C165.605 52.3038 169.626 51.9354 169.626 51.9354C169.626 51.9354 167.526 48.4836 166.47 47.9515C165.969 47.7439 165.408 47.7331 164.899 47.9213C164.391 48.1096 163.972 48.4828 163.728 48.9661C163.484 49.4495 163.432 50.0071 163.582 50.5272C163.733 51.0472 164.075 51.4911 164.54 51.7697L164.548 51.7717Z" fill="#6C63FF"/>
<path d="M163.689 61.6867C164.64 62.3884 168.675 62.7061 168.675 62.7061C168.675 62.7061 167.19 58.9502 166.237 58.2466C166.014 58.0494 165.752 57.9008 165.468 57.8102C165.184 57.7196 164.884 57.6891 164.587 57.7205C164.291 57.7519 164.004 57.8446 163.745 57.9927C163.487 58.1407 163.262 58.3409 163.085 58.5805C162.908 58.8201 162.783 59.0939 162.718 59.3843C162.652 59.6748 162.649 59.9756 162.706 60.2676C162.764 60.5596 162.882 60.8364 163.053 61.0804C163.224 61.3244 163.444 61.5302 163.698 61.6848L163.689 61.6867Z" fill="#6C63FF"/>
<path opacity="0.1" d="M172.065 32.4038C172.065 33.585 169.917 37.0095 169.917 37.0095C169.917 37.0095 167.768 33.585 167.768 32.4038C167.747 32.1097 167.786 31.8143 167.884 31.536C167.981 31.2578 168.136 31.0026 168.337 30.7865C168.538 30.5705 168.781 30.3981 169.052 30.2803C169.323 30.1624 169.615 30.1016 169.911 30.1016C170.206 30.1016 170.499 30.1624 170.769 30.2803C171.04 30.3981 171.284 30.5705 171.485 30.7865C171.686 31.0026 171.84 31.2578 171.938 31.536C172.036 31.8143 172.075 32.1097 172.053 32.4038H172.065Z" fill="#6C63FF"/>
<path opacity="0.1" d="M175.598 38.9447C174.955 39.9367 171.284 41.65 171.284 41.65C171.284 41.65 171.35 37.6134 171.993 36.6213C172.32 36.1877 172.799 35.8939 173.334 35.7991C173.87 35.7043 174.421 35.8156 174.877 36.1106C175.334 36.4055 175.661 36.8622 175.793 37.3885C175.926 37.9148 175.853 38.4716 175.59 38.9466L175.598 38.9447Z" fill="#6C63FF"/>
<path opacity="0.1" d="M175.444 50.1267C174.387 50.6588 170.366 50.2904 170.366 50.2904C170.366 50.2904 172.465 46.8385 173.522 46.3064C174.023 46.0989 174.584 46.0881 175.092 46.2763C175.601 46.4645 176.019 46.8378 176.264 47.3211C176.508 47.8045 176.56 48.3621 176.409 48.8821C176.259 49.4022 175.916 49.8461 175.451 50.1247L175.444 50.1267Z" fill="#6C63FF"/>
<path opacity="0.1" d="M173.418 58.5683C172.467 59.27 168.432 59.5877 168.432 59.5877C168.432 59.5877 169.917 55.8318 170.87 55.1282C171.328 54.85 171.875 54.7533 172.401 54.857C172.928 54.9607 173.396 55.2573 173.715 55.6885C174.033 56.1196 174.178 56.6541 174.122 57.1867C174.065 57.7193 173.811 58.2115 173.409 58.5664L173.418 58.5683Z" fill="#6C63FF"/>
<path opacity="0.1" d="M166.792 41.8784C167.642 42.7009 171.596 43.5546 171.596 43.5546C171.596 43.5546 170.62 39.635 169.778 38.8105C169.582 38.5908 169.342 38.4138 169.074 38.2905C168.806 38.1673 168.516 38.1005 168.221 38.0942C167.926 38.088 167.633 38.1424 167.36 38.2542C167.087 38.366 166.84 38.5326 166.634 38.7439C166.429 38.9551 166.269 39.2063 166.165 39.4818C166.061 39.7574 166.015 40.0513 166.029 40.3454C166.044 40.6395 166.12 40.9274 166.251 41.1911C166.382 41.4549 166.566 41.6888 166.792 41.8784Z" fill="#6C63FF"/>
<path opacity="0.1" d="M164.548 51.7717C165.605 52.3038 169.626 51.9354 169.626 51.9354C169.626 51.9354 167.526 48.4836 166.47 47.9515C165.969 47.7439 165.408 47.7331 164.899 47.9213C164.391 48.1096 163.972 48.4828 163.728 48.9661C163.484 49.4495 163.432 50.0071 163.582 50.5272C163.733 51.0472 164.075 51.4911 164.54 51.7697L164.548 51.7717Z" fill="#6C63FF"/>
<path opacity="0.1" d="M163.689 61.6867C164.64 62.3884 168.675 62.7061 168.675 62.7061C168.675 62.7061 167.19 58.9502 166.237 58.2466C166.014 58.0494 165.752 57.9008 165.468 57.8102C165.184 57.7196 164.884 57.6891 164.587 57.7205C164.291 57.7519 164.004 57.8446 163.745 57.9927C163.487 58.1407 163.262 58.3409 163.085 58.5805C162.908 58.8201 162.783 59.0939 162.718 59.3843C162.652 59.6748 162.649 59.9756 162.706 60.2676C162.764 60.5596 162.882 60.8364 163.053 61.0804C163.224 61.3244 163.444 61.5302 163.698 61.6848L163.689 61.6867Z" fill="#6C63FF"/>
<path d="M181.455 83.0472C181.455 83.0472 178.611 73.4089 181.988 66.3162C183.424 63.3498 183.857 59.9986 183.222 56.7656C182.909 55.2331 182.455 53.7326 181.867 52.2827" stroke="#535461" stroke-width="2" stroke-miterlimit="10"/>
<path d="M183.978 47.8018C183.978 48.9829 181.83 52.4075 181.83 52.4075C181.83 52.4075 179.682 48.9829 179.682 47.8018C179.66 47.5077 179.699 47.2123 179.797 46.934C179.894 46.6557 180.049 46.4006 180.25 46.1845C180.451 45.9684 180.694 45.7961 180.965 45.6782C181.236 45.5603 181.528 45.4995 181.824 45.4995C182.119 45.4995 182.412 45.5603 182.683 45.6782C182.953 45.7961 183.197 45.9684 183.398 46.1845C183.599 46.4006 183.753 46.6557 183.851 46.934C183.949 47.2123 183.988 47.5077 183.966 47.8018H183.978Z" fill="#6C63FF"/>
<path d="M187.511 54.3425C186.868 55.3346 183.205 57.0459 183.205 57.0459C183.205 57.0459 183.271 53.0093 183.914 52.0172C184.056 51.7596 184.25 51.5341 184.484 51.3547C184.717 51.1752 184.985 51.0457 185.271 50.9741C185.557 50.9025 185.855 50.8904 186.146 50.9386C186.437 50.9868 186.714 51.0942 186.962 51.2541C187.209 51.4141 187.421 51.6231 187.584 51.8683C187.747 52.1134 187.858 52.3895 187.909 52.6791C187.961 52.9688 187.952 53.266 187.883 53.5522C187.815 53.8383 187.688 54.1073 187.511 54.3425Z" fill="#6C63FF"/>
<path d="M187.357 65.5245C186.3 66.0566 182.279 65.6883 182.279 65.6883C182.279 65.6883 184.378 62.2364 185.435 61.7043C185.688 61.5525 185.97 61.4545 186.263 61.4164C186.556 61.3783 186.854 61.4009 187.137 61.4828C187.421 61.5647 187.685 61.7042 187.912 61.8924C188.14 62.0807 188.326 62.3137 188.459 62.577C188.592 62.8402 188.669 63.128 188.686 63.4224C188.702 63.7168 188.658 64.0114 188.555 64.2879C188.452 64.5643 188.294 64.8166 188.089 65.0291C187.884 65.2415 187.637 65.4095 187.364 65.5226L187.357 65.5245Z" fill="#6C63FF"/>
<path d="M185.331 73.9663C184.38 74.6679 180.345 74.9856 180.345 74.9856C180.345 74.9856 181.83 71.2297 182.783 70.5261C183.241 70.248 183.788 70.1512 184.314 70.2549C184.841 70.3586 185.309 70.6552 185.628 71.0864C185.946 71.5176 186.091 72.0521 186.035 72.5847C185.978 73.1173 185.724 73.6095 185.322 73.9643L185.331 73.9663Z" fill="#6C63FF"/>
<path d="M178.705 57.2759C179.555 58.0984 183.509 58.9521 183.509 58.9521C183.509 58.9521 182.533 55.0324 181.691 54.208C181.275 53.859 180.743 53.6801 180.2 53.7073C179.658 53.7345 179.146 53.9658 178.767 54.3547C178.389 54.7436 178.172 55.2611 178.16 55.8031C178.149 56.3451 178.343 56.8713 178.705 57.2759Z" fill="#6C63FF"/>
<path d="M176.461 67.1696C177.518 67.7017 181.539 67.3334 181.539 67.3334C181.539 67.3334 179.439 63.8815 178.383 63.3494C177.882 63.1419 177.321 63.1311 176.812 63.3193C176.304 63.5075 175.885 63.8807 175.641 64.3641C175.397 64.8474 175.345 65.4051 175.495 65.9251C175.646 66.4451 175.988 66.889 176.453 67.1677L176.461 67.1696Z" fill="#6C63FF"/>
<path d="M175.602 77.0847C176.553 77.7863 180.588 78.104 180.588 78.104C180.588 78.104 179.103 74.3481 178.15 73.6445C177.927 73.4473 177.665 73.2987 177.381 73.2081C177.097 73.1176 176.797 73.087 176.5 73.1184C176.204 73.1498 175.917 73.2425 175.658 73.3906C175.4 73.5387 175.175 73.7389 174.998 73.9785C174.821 74.2181 174.696 74.4918 174.631 74.7823C174.566 75.0727 174.562 75.3735 174.62 75.6655C174.677 75.9575 174.795 76.2343 174.966 76.4783C175.137 76.7223 175.357 76.9281 175.612 77.0827L175.602 77.0847Z" fill="#6C63FF"/>
<path opacity="0.1" d="M183.978 47.8018C183.978 48.9829 181.83 52.4075 181.83 52.4075C181.83 52.4075 179.682 48.9829 179.682 47.8018C179.66 47.5077 179.699 47.2123 179.797 46.934C179.894 46.6557 180.049 46.4006 180.25 46.1845C180.451 45.9684 180.694 45.7961 180.965 45.6782C181.236 45.5603 181.528 45.4995 181.824 45.4995C182.119 45.4995 182.412 45.5603 182.683 45.6782C182.953 45.7961 183.197 45.9684 183.398 46.1845C183.599 46.4006 183.753 46.6557 183.851 46.934C183.949 47.2123 183.988 47.5077 183.966 47.8018H183.978Z" fill="#6C63FF"/>
<path opacity="0.1" d="M187.511 54.3425C186.868 55.3346 183.205 57.0459 183.205 57.0459C183.205 57.0459 183.271 53.0093 183.914 52.0172C184.056 51.7596 184.25 51.5341 184.484 51.3547C184.717 51.1752 184.985 51.0457 185.271 50.9741C185.557 50.9025 185.855 50.8904 186.146 50.9386C186.437 50.9868 186.714 51.0942 186.962 51.2541C187.209 51.4141 187.421 51.6231 187.584 51.8683C187.747 52.1134 187.858 52.3895 187.909 52.6791C187.961 52.9688 187.952 53.266 187.883 53.5522C187.815 53.8383 187.688 54.1073 187.511 54.3425Z" fill="#6C63FF"/>
<path opacity="0.1" d="M187.357 65.5245C186.3 66.0566 182.279 65.6883 182.279 65.6883C182.279 65.6883 184.378 62.2364 185.435 61.7043C185.688 61.5525 185.97 61.4545 186.263 61.4164C186.556 61.3783 186.854 61.4009 187.137 61.4828C187.421 61.5647 187.685 61.7042 187.912 61.8924C188.14 62.0807 188.326 62.3137 188.459 62.577C188.592 62.8402 188.669 63.128 188.686 63.4224C188.702 63.7168 188.658 64.0114 188.555 64.2879C188.452 64.5643 188.294 64.8166 188.089 65.0291C187.884 65.2415 187.637 65.4095 187.364 65.5226L187.357 65.5245Z" fill="#6C63FF"/>
<path opacity="0.1" d="M185.331 73.9663C184.38 74.6679 180.345 74.9856 180.345 74.9856C180.345 74.9856 181.83 71.2297 182.783 70.5261C183.241 70.248 183.788 70.1512 184.314 70.2549C184.841 70.3586 185.309 70.6552 185.628 71.0864C185.946 71.5176 186.091 72.0521 186.035 72.5847C185.978 73.1173 185.724 73.6095 185.322 73.9643L185.331 73.9663Z" fill="#6C63FF"/>
<path opacity="0.1" d="M178.705 57.2759C179.555 58.0984 183.509 58.9521 183.509 58.9521C183.509 58.9521 182.533 55.0324 181.691 54.208C181.275 53.859 180.743 53.6801 180.2 53.7073C179.658 53.7345 179.146 53.9658 178.767 54.3547C178.389 54.7436 178.172 55.2611 178.16 55.8031C178.149 56.3451 178.343 56.8713 178.705 57.2759Z" fill="#6C63FF"/>
<path opacity="0.1" d="M176.461 67.1696C177.518 67.7017 181.539 67.3334 181.539 67.3334C181.539 67.3334 179.439 63.8815 178.383 63.3494C177.882 63.1419 177.321 63.1311 176.812 63.3193C176.304 63.5075 175.885 63.8807 175.641 64.3641C175.397 64.8474 175.345 65.4051 175.495 65.9251C175.646 66.4451 175.988 66.889 176.453 67.1677L176.461 67.1696Z" fill="#6C63FF"/>
<path opacity="0.1" d="M175.602 77.0847C176.553 77.7863 180.588 78.104 180.588 78.104C180.588 78.104 179.103 74.3481 178.15 73.6445C177.927 73.4473 177.665 73.2987 177.381 73.2081C177.097 73.1176 176.797 73.087 176.5 73.1184C176.204 73.1498 175.917 73.2425 175.658 73.3906C175.4 73.5387 175.175 73.7389 174.998 73.9785C174.821 74.2181 174.696 74.4918 174.631 74.7823C174.566 75.0727 174.562 75.3735 174.62 75.6655C174.677 75.9575 174.795 76.2343 174.966 76.4783C175.137 76.7223 175.357 76.9281 175.612 77.0827L175.602 77.0847Z" fill="#6C63FF"/>
<path opacity="0.1" d="M105.448 115.271C158.494 110.108 200.821 99.0148 199.988 90.4931C199.155 81.9714 155.478 79.2486 102.433 84.4115C49.3872 89.5744 7.06029 100.668 7.89299 109.19C8.72569 117.711 52.4027 120.434 105.448 115.271Z" fill="#6C63FF"/>
<path d="M191.63 91.8508C195.241 84.4638 194.495 72.4398 194.11 68.3584C194.026 67.4657 193.959 66.9531 193.959 66.9531C193.959 66.9531 190.776 66.4522 191.95 62.6066C192.524 60.7238 190.485 59.683 188.259 59.1119C186.667 58.732 185.043 58.5029 183.408 58.4278L152.572 56.5274C148.344 49.8303 140.025 50.9062 140.025 50.9062C140.025 50.9062 132.604 50.1363 127.342 50.0564C126.544 49.3543 125.669 48.7443 124.733 48.2379C124.176 47.9036 123.582 47.6336 122.964 47.4329C122.212 47.2164 121.42 47.1786 120.651 47.3224C119.881 47.4663 119.157 47.7878 118.534 48.2613C118.231 48.479 117.984 48.7656 117.814 49.0975C117.748 49.2483 117.699 49.4058 117.667 49.5672C117.588 49.8424 117.523 50.1215 117.472 50.4033C117.426 50.539 117.36 50.6671 117.277 50.7834C117.066 51.0816 116.703 51.3058 116.656 51.6664C116.655 51.6871 116.655 51.708 116.656 51.7287C116.617 51.7976 116.591 51.8729 116.58 51.9509C116.565 52.1114 116.6 52.2724 116.679 52.4129C116.691 52.4363 116.704 52.4577 116.718 52.4791C116.459 52.8543 116.247 53.2602 116.087 53.6876C116.015 53.7268 115.945 53.7704 115.878 53.8182L115.82 53.861V53.9799L115.787 54.0053L115.714 55.9251L115.755 55.9563C115.814 56.8519 116.085 57.7208 116.546 58.4919C117.006 59.2629 117.643 59.9142 118.404 60.3925C118.429 60.5152 118.452 60.64 118.476 60.7706C118.583 61.4001 118.631 62.0383 118.62 62.6768H118.587C117.669 62.287 116.099 62.86 114.75 63.5286H97.2667C100.677 59.1509 104.848 55.7556 104.848 55.7556V51.908C101.868 51.7599 75.6866 64.3121 69.9469 67.0837L69.693 67.2065L40.1936 68.1187C34.8504 68.0855 30.1789 68.8691 26.1324 70.1457C19.3704 72.2656 13.294 76.1399 8.52455 81.3725C5.04048 85.1888 3.51327 88.3425 3.51327 88.3425L3.54647 88.6075L3.51327 88.6758L3.56014 88.7167L4.35499 94.9772L4.90182 99.2847C1.10137 101.737 6.02476 102.719 6.02476 102.719C10.7119 106.73 18.2522 106.565 18.2522 106.565C20.0938 109.073 25.4547 108.738 25.4547 108.738H53.5948C54.0331 106.159 54.62 103.608 55.3525 101.097C56.5535 109.73 63.3791 116.343 71.6167 116.343C72.2277 116.343 72.8381 116.306 73.4446 116.232C74.0512 116.306 74.6616 116.343 75.2726 116.343C83.6058 116.343 90.492 109.574 91.5758 100.797H92.9527C92.6956 102.758 92.2489 104.69 91.6188 106.565C116.912 99.2087 163.98 95.6983 163.98 95.6983C164.175 93.8467 164.39 92.0574 164.622 90.3403C166.561 95.1448 170.958 98.4992 176.074 98.4992C176.539 98.4985 177.003 98.4699 177.465 98.4134C177.926 98.4699 178.39 98.4985 178.855 98.4992C184.931 98.4992 189.987 93.7687 191.128 87.4966C191.279 88.6035 191.365 89.7184 191.385 90.8354C191.169 91.8996 190.979 92.5798 190.954 92.6753C191.106 92.3972 191.251 92.1127 191.387 91.8216C191.387 91.9346 191.387 92.0516 191.387 92.1685C191.341 92.3635 191.307 92.4726 191.298 92.5096L191.383 92.3498C191.383 92.4356 191.383 92.5194 191.383 92.6051C191.364 92.6129 191.467 92.3323 191.63 91.8508Z" fill="url(#paint0_linear_443_7196)"/>
<path d="M188.679 65.3081H130.696V88.6524H188.679V65.3081Z" fill="#6F7D95"/>
<path d="M115.953 54.3756L124.188 72.7887L140.497 71.8024L141.156 64.24L141.65 55.3618L118.589 53.7168L115.953 54.3756Z" fill="#4B5C7A"/>
<path d="M115.953 54.3759C115.953 54.3759 119.077 51.4172 122.872 50.7584C126.667 50.0996 139.345 51.4152 139.345 51.4152L141.157 54.5338L140.818 56.019L115.953 54.3759Z" fill="#FF4D52"/>
<path d="M147.003 63.8291H88.5254V80.9266H147.003V63.8291Z" fill="#4B5C7A"/>
<path d="M132.615 75.461C134.16 70.3056 131.08 66.9181 131.08 66.9181L125.975 63.3629C125.971 63.375 125.966 63.3868 125.96 63.398C125.296 62.6214 124.82 61.7022 124.571 60.7122C124.555 60.6498 124.542 60.5855 124.526 60.5173C124.993 60.1712 125.401 59.7535 125.737 59.2796C126.569 58.7709 126.94 57.9523 127.081 57.1356C127.616 56.3429 128.042 55.4822 128.348 54.5764C128.399 54.4299 128.442 54.281 128.477 54.1301C128.575 53.8492 128.619 53.5522 128.606 53.2549C128.564 52.9239 128.454 52.6053 128.282 52.3194C127.422 50.7601 125.876 49.6744 124.307 48.7896C123.759 48.461 123.175 48.1955 122.567 47.9982C121.828 47.7855 121.049 47.7484 120.293 47.8899C119.537 48.0314 118.824 48.3475 118.212 48.813C117.914 49.0271 117.671 49.3091 117.503 49.6355C117.439 49.7838 117.39 49.9387 117.359 50.0974C117.283 50.3682 117.221 50.6428 117.173 50.9199C117.131 51.0523 117.069 51.1778 116.99 51.2922C116.781 51.5846 116.425 51.8048 116.378 52.1615C116.377 52.1823 116.377 52.2031 116.378 52.2239C116.341 52.2916 116.316 52.3655 116.304 52.4422C116.29 52.5999 116.324 52.7583 116.402 52.8963C116.414 52.9197 116.427 52.9411 116.441 52.9626C116.185 53.3317 115.977 53.731 115.82 54.1515C115.748 54.1901 115.679 54.2331 115.613 54.2802L115.556 54.3211V54.438L115.523 54.4634L115.451 56.352L115.49 56.3832C115.547 57.2642 115.813 58.1189 116.266 58.8775C116.718 59.636 117.345 60.2768 118.093 60.7473C118.118 60.8681 118.142 60.9909 118.163 61.1195C118.281 61.7996 118.328 62.49 118.304 63.1797C118.296 63.1202 118.296 63.0599 118.304 63.0004C116.892 62.3631 113.812 64.125 112.572 64.9047C112.384 64.9936 112.209 65.107 112.051 65.2419L112.029 65.2575C111.176 65.9474 109.49 67.8653 108.153 72.7946C106.297 79.673 106.491 81.2322 105.139 82.8266C103.788 84.421 102.446 95.6536 102.446 95.6536L105.167 96.3845L105.514 95.2696C108.748 98.2127 117.804 99.6297 117.804 99.6297L118.081 98.7702C119.47 99.2692 121.792 98.511 121.792 98.511C125.186 97.3142 126.458 94.2775 128.92 90.2721C131.383 86.2667 132.615 75.461 132.615 75.461ZM118.925 96.1857L125.194 76.7786C125.762 79.7919 123.255 84.5379 123.032 87.6409C122.893 89.6367 120.566 93.6031 118.925 96.1857Z" fill="url(#paint1_linear_443_7196)"/>
<path d="M126.768 55.0405C126.768 55.0405 127.86 59.1901 124.62 59.9132C121.38 60.6363 123.515 58.0479 123.515 58.0479L126.639 55.0093L126.768 55.0405Z" fill="#472727"/>
<path d="M113.222 64.9302C113.222 64.9302 110.812 65.9047 109.041 72.4693C107.27 79.0338 107.446 80.5151 106.17 82.0413C104.895 83.5674 103.589 94.2757 103.589 94.2757L106.139 94.9618L108.36 87.8047L114.466 68.8985L113.222 64.9302Z" fill="#DDE0E4"/>
<path opacity="0.05" d="M113.222 64.9302C113.222 64.9302 110.812 65.9047 109.041 72.4693C107.27 79.0338 107.446 80.5151 106.17 82.0413C104.895 83.5674 103.589 94.2757 103.589 94.2757L106.139 94.9618L108.36 87.8047L114.466 68.8985L113.222 64.9302Z" fill="black"/>
<path d="M126.604 64.1895C126.604 64.1895 116.515 69.3078 117.992 65.969C118.722 64.3201 118.695 62.6107 118.482 61.2912C118.36 60.5139 118.147 59.7537 117.847 59.0263C117.847 59.0263 124.706 53.6117 124.304 58.0323C124.207 58.9838 124.273 59.9446 124.499 60.8741C125.093 63.2188 126.604 64.1895 126.604 64.1895Z" fill="#DB8B8B"/>
<path opacity="0.1" d="M124.499 60.8819C123.85 61.4019 123.087 61.7613 122.272 61.9307C121.458 62.1 120.615 62.0746 119.812 61.8564C119.342 61.7304 118.892 61.5409 118.474 61.2931C118.352 60.5159 118.139 59.7557 117.839 59.0283C117.839 59.0283 124.698 53.6137 124.296 58.0342C124.201 58.9881 124.27 59.951 124.499 60.8819Z" fill="black"/>
<path d="M126.364 57.8761C127.123 55.0655 125.454 52.1735 122.638 51.4167C119.822 50.6599 116.924 52.3249 116.166 55.1355C115.408 57.9461 117.076 60.8381 119.892 61.5949C122.708 62.3517 125.606 60.6867 126.364 57.8761Z" fill="#DB8B8B"/>
<path opacity="0.1" d="M118.613 53.9354C118.468 54.0238 118.307 54.082 118.139 54.1065C117.971 54.1311 117.799 54.1215 117.635 54.0784C117.471 54.0352 117.317 53.9594 117.183 53.8554C117.049 53.7515 116.938 53.6216 116.855 53.4735C116.783 53.3414 116.751 53.1907 116.765 53.0408C116.81 52.7017 117.146 52.4912 117.351 52.2105C117.669 51.7563 117.609 51.1346 117.839 50.6298C117.998 50.3215 118.227 50.0545 118.507 49.8501C119.078 49.4048 119.746 49.1006 120.457 48.9624C121.168 48.8242 121.902 48.8559 122.599 49.0549C123.169 49.2404 123.715 49.4909 124.227 49.8014C125.696 50.6376 127.143 51.6608 127.938 53.148C128.099 53.4209 128.201 53.7242 128.239 54.0387C128.248 54.3785 128.188 54.7165 128.063 55.0328C127.769 55.9063 127.36 56.7368 126.846 57.5023C126.674 57.2893 126.459 57.1158 126.214 56.9936C126.09 56.9352 125.951 56.9171 125.816 56.942C125.682 56.9668 125.558 57.0333 125.464 57.1319C125.294 57.3483 125.19 57.7615 124.932 57.664C124.764 57.6017 124.766 57.3697 124.774 57.1904C124.809 56.4108 124.384 55.676 123.811 55.1497C123.239 54.6235 122.53 54.2765 121.831 53.9354C121.329 53.6898 120.659 53.1266 120.109 53.0272C119.425 52.9005 119.103 53.6333 118.613 53.9354Z" fill="black"/>
<path d="M118.685 53.6683C118.54 53.7567 118.379 53.8149 118.211 53.8394C118.043 53.864 117.872 53.8544 117.707 53.8113C117.543 53.7681 117.39 53.6923 117.255 53.5883C117.121 53.4844 117.01 53.3545 116.927 53.2064C116.855 53.0743 116.824 52.9236 116.837 52.7737C116.882 52.4346 117.218 52.2241 117.423 51.9434C117.742 51.4893 117.681 50.8675 117.912 50.3627C118.07 50.0544 118.299 49.7874 118.579 49.583C119.15 49.1377 119.818 48.8336 120.53 48.6953C121.241 48.5571 121.974 48.5888 122.671 48.7878C123.241 48.9734 123.787 49.2238 124.3 49.5343C125.768 50.3705 127.215 51.3938 128.01 52.8809C128.171 53.1538 128.274 53.4571 128.311 53.7716C128.32 54.1114 128.26 54.4495 128.135 54.7657C127.842 55.6392 127.432 56.4697 126.919 57.2352C126.747 57.0222 126.531 56.8487 126.286 56.7265C126.162 56.6681 126.023 56.6501 125.888 56.6749C125.754 56.6997 125.631 56.7662 125.536 56.8649C125.366 57.0812 125.262 57.4944 125.005 57.397C124.837 57.3346 124.839 57.1026 124.846 56.9233C124.882 56.1437 124.456 55.4089 123.884 54.8826C123.311 54.3564 122.603 54.0094 121.903 53.6683C121.401 53.4228 120.732 52.8595 120.181 52.7601C119.497 52.6314 119.175 53.3662 118.685 53.6683Z" fill="#472727"/>
<path d="M121.45 64.8872C121.45 64.8872 125.628 64.0705 125.809 63.402L130.586 66.7681C130.586 66.7681 133.461 69.9821 131.99 74.9016C131.99 74.9016 130.793 85.2104 128.465 89.0365C126.137 92.8625 124.8 97.8191 121.61 98.9768C121.61 98.9768 118.544 97.0043 117.533 97.0277C117.533 97.0277 122.726 89.5179 122.948 86.5611C123.171 83.6043 125.544 79.0707 125.024 76.2017L117.994 98.012C117.994 98.012 106.666 96.2578 105.518 92.5058C105.518 92.5058 106.495 91.0421 106.313 89.5588C106.131 88.0755 110.586 76.917 110.586 76.917L112.719 65.2809C112.719 65.2809 116.937 62.3397 118.617 63.1037C118.609 63.0921 118.304 64.5441 121.45 64.8872Z" fill="#DDE0E4"/>
<g opacity="0.1">
<path d="M122.972 55.8395C121.94 54.4361 119.974 55.5881 119.652 55.7888L119.146 55.7381C118.704 55.2587 117.351 53.984 116.08 54.9215L116.025 54.9624L115.949 56.7614L116.003 56.8043C116.371 57.0872 116.787 57.3 117.232 57.4319C117.513 57.5145 117.811 57.5292 118.099 57.4748C118.312 57.4256 118.512 57.3304 118.685 57.1956C118.857 57.0609 118.998 56.8901 119.097 56.6951L119.361 56.7127L119.556 56.6757C119.595 56.8829 119.678 57.0795 119.799 57.2523C119.92 57.425 120.077 57.57 120.259 57.6775C121.132 58.1706 122.407 57.6775 122.46 57.6677L122.526 57.6424L122.995 55.9019L122.972 55.8395ZM122.31 57.4222C122.05 57.5099 121.069 57.7983 120.411 57.4222C120.247 57.3196 120.109 57.1809 120.008 57.0167C119.906 56.8524 119.844 56.667 119.825 56.4749L119.802 56.3326L119.374 56.4203L118.945 56.4047L118.904 56.4866C118.825 56.6636 118.707 56.8204 118.558 56.9447C118.41 57.0691 118.235 57.1577 118.046 57.2039C117.31 57.3617 116.458 56.7926 116.236 56.6308L116.3 55.1105C117.406 54.3679 118.624 55.5725 118.976 55.9662L119.013 56.0071L119.726 56.0773L119.769 56.048C119.788 56.0363 121.56 54.8493 122.569 55.8044C122.619 55.8507 122.666 55.9009 122.708 55.9545L122.31 57.4222Z" fill="black"/>
<path d="M126.17 56.7437L122.85 56.4688L122.577 56.4162L122.7 55.9562C122.658 55.9027 122.611 55.8525 122.561 55.8062L122.964 55.8451L125.68 56.1102L126.17 56.7437Z" fill="black"/>
</g>
<path d="M123.007 55.715C121.976 54.3116 120.009 55.4635 119.687 55.6643L119.181 55.6136C118.74 55.1341 117.386 53.8594 116.115 54.797L116.06 54.8379L115.984 56.6369L116.039 56.6798C116.406 56.9627 116.822 57.1755 117.267 57.3074C117.549 57.39 117.846 57.4047 118.134 57.3503C118.348 57.3011 118.548 57.2058 118.72 57.0711C118.892 56.9364 119.033 56.7656 119.132 56.5706L119.396 56.5882L119.591 56.5511C119.63 56.7584 119.713 56.955 119.834 57.1277C119.956 57.3005 120.112 57.4455 120.294 57.553C121.167 58.0461 122.442 57.553 122.495 57.5432L122.562 57.5179L123.03 55.7773L123.007 55.715ZM122.345 57.2976C122.085 57.3854 121.105 57.6738 120.447 57.2976C120.283 57.1951 120.145 57.0564 120.043 56.8921C119.941 56.7279 119.879 56.5425 119.861 56.3504L119.837 56.2081L119.409 56.2958L118.986 56.2685L118.945 56.3504C118.868 56.5285 118.751 56.6865 118.603 56.8122C118.455 56.9379 118.28 57.028 118.091 57.0754C117.355 57.2333 116.503 56.6642 116.281 56.5024L116.345 54.9821C117.451 54.2395 118.669 55.4441 119.021 55.8378L119.058 55.8787L119.771 55.9489L119.814 55.9196C119.833 55.9079 121.605 54.7209 122.614 55.676C122.664 55.7223 122.711 55.7725 122.753 55.8261L122.345 57.2976Z" fill="#472727"/>
<path d="M126.202 56.6192L122.894 56.3443L122.62 56.2917L122.743 55.8317C122.701 55.7782 122.655 55.728 122.604 55.6816L123.007 55.7206L125.723 55.9857L126.202 56.6192Z" fill="#472727"/>
<path d="M103.514 77.145H45.5312V100.489H103.514V77.145Z" fill="#6F7D95"/>
<path d="M72.0679 115.778C81.004 115.778 88.2481 107.866 88.2481 98.1055C88.2481 88.3453 81.004 80.4331 72.0679 80.4331C63.1318 80.4331 55.8877 88.3453 55.8877 98.1055C55.8877 107.866 63.1318 115.778 72.0679 115.778Z" fill="#4B5C7A"/>
<path opacity="0.05" d="M72.0679 115.778C81.004 115.778 88.2481 107.866 88.2481 98.1055C88.2481 88.3453 81.004 80.4331 72.0679 80.4331C63.1318 80.4331 55.8877 88.3453 55.8877 98.1055C55.8877 107.866 63.1318 115.778 72.0679 115.778Z" fill="black"/>
<path d="M75.6633 115.778C84.5993 115.778 91.8435 107.866 91.8435 98.1055C91.8435 88.3453 84.5993 80.4331 75.6633 80.4331C66.7272 80.4331 59.483 88.3453 59.483 98.1055C59.483 107.866 66.7272 115.778 75.6633 115.778Z" fill="#4B5C7A"/>
<path opacity="0.05" d="M75.3039 105.372C79.2753 105.372 82.4947 102.159 82.4947 98.1956C82.4947 94.2321 79.2753 91.019 75.3039 91.019C71.3326 91.019 68.1132 94.2321 68.1132 98.1956C68.1132 102.159 71.3326 105.372 75.3039 105.372Z" fill="black"/>
<path d="M75.3039 100.349C76.4957 100.349 77.4619 99.3847 77.4619 98.1953C77.4619 97.0058 76.4957 96.0415 75.3039 96.0415C74.112 96.0415 73.1459 97.0058 73.1459 98.1953C73.1459 99.3847 74.112 100.349 75.3039 100.349Z" stroke="#6F7D95" stroke-width="2" stroke-miterlimit="10"/>
<path d="M75.3039 94.9656C75.6016 94.9656 75.8429 94.7247 75.8429 94.4276C75.8429 94.1305 75.6016 93.8896 75.3039 93.8896C75.0062 93.8896 74.7649 94.1305 74.7649 94.4276C74.7649 94.7247 75.0062 94.9656 75.3039 94.9656Z" fill="#6F7D95"/>
<path d="M78.5999 95.8788C78.8279 95.6878 78.8577 95.3485 78.6663 95.1209C78.475 94.8933 78.135 94.8636 77.9069 95.0546C77.6789 95.2456 77.6491 95.5849 77.8405 95.8125C78.0318 96.0401 78.3718 96.0698 78.5999 95.8788Z" fill="#6F7D95"/>
<path d="M79.8869 98.4837C79.9386 98.1911 79.7429 97.9121 79.4497 97.8605C79.1565 97.8089 78.877 98.0043 78.8253 98.2969C78.7736 98.5895 78.9694 98.8685 79.2625 98.9201C79.5557 98.9717 79.8353 98.7763 79.8869 98.4837Z" fill="#6F7D95"/>
<path d="M78.0847 101.578C78.3425 101.429 78.4308 101.1 78.282 100.843C78.1331 100.586 77.8035 100.498 77.5457 100.646C77.2879 100.795 77.1995 101.124 77.3484 101.381C77.4972 101.638 77.8269 101.726 78.0847 101.578Z" fill="#6F7D95"/>
<path d="M75.2467 101.869C75.3485 101.59 75.2043 101.281 74.9245 101.179C74.6448 101.078 74.3355 101.222 74.2337 101.501C74.1319 101.78 74.2761 102.089 74.5558 102.19C74.8356 102.292 75.1449 102.148 75.2467 101.869Z" fill="#6F7D95"/>
<path d="M72.5068 100.207C72.7865 100.106 72.9308 99.7971 72.829 99.5179C72.7271 99.2387 72.4178 99.0948 72.1381 99.1964C71.8584 99.298 71.7141 99.6067 71.8159 99.8859C71.9178 100.165 72.2271 100.309 72.5068 100.207Z" fill="#6F7D95"/>
<path d="M72.7583 96.847C72.9071 96.5897 72.8188 96.2607 72.561 96.1121C72.3032 95.9636 71.9735 96.0517 71.8247 96.309C71.6758 96.5663 71.7642 96.8953 72.022 97.0439C72.2798 97.1924 72.6094 97.1043 72.7583 96.847Z" fill="#6F7D95"/>
<path d="M191.924 84.4483C191.372 88.2569 189.835 92.426 189.835 92.426C189.845 92.1661 189.852 91.9095 189.854 91.6561C189.854 91.3286 189.854 91.0051 189.854 90.6815C189.659 80.1837 183.927 73.7069 180.23 70.6059C179.269 69.7887 178.236 69.0606 177.143 68.4307H187.191C187.191 68.4307 191.143 76.4863 191.967 80.4312C192.206 81.5383 192.139 82.967 191.924 84.4483Z" fill="#FF4D52"/>
<path opacity="0.05" d="M191.924 84.4483C191.372 88.2569 189.835 92.426 189.835 92.426C189.845 92.1661 189.852 91.9095 189.854 91.6561C189.854 91.3286 189.854 91.0051 189.854 90.6815C189.659 80.1837 183.927 73.7069 180.23 70.6059C179.269 69.7887 178.236 69.0606 177.143 68.4307H187.191C187.191 68.4307 191.143 76.4863 191.967 80.4312C192.206 81.5383 192.139 82.967 191.924 84.4483Z" fill="black"/>
<path d="M174.793 98.2305C181.589 98.2305 187.099 92.2128 187.099 84.7896C187.099 77.3664 181.589 71.3486 174.793 71.3486C167.997 71.3486 162.488 77.3664 162.488 84.7896C162.488 92.2128 167.997 98.2305 174.793 98.2305Z" fill="#4B5C7A"/>
<path opacity="0.05" d="M174.793 98.2305C181.589 98.2305 187.099 92.2128 187.099 84.7896C187.099 77.3664 181.589 71.3486 174.793 71.3486C167.997 71.3486 162.488 77.3664 162.488 84.7896C162.488 92.2128 167.997 98.2305 174.793 98.2305Z" fill="black"/>
<path d="M177.527 98.2305C184.324 98.2305 189.833 92.2128 189.833 84.7896C189.833 77.3664 184.324 71.3486 177.527 71.3486C170.731 71.3486 165.222 77.3664 165.222 84.7896C165.222 92.2128 170.731 98.2305 177.527 98.2305Z" fill="#4B5C7A"/>
<path opacity="0.05" d="M177.254 90.3153C180.274 90.3153 182.722 87.8719 182.722 84.8579C182.722 81.8438 180.274 79.4004 177.254 79.4004C174.234 79.4004 171.786 81.8438 171.786 84.8579C171.786 87.8719 174.234 90.3153 177.254 90.3153Z" fill="black"/>
<path d="M177.254 86.4952C178.16 86.4952 178.894 85.7622 178.894 84.8579C178.894 83.9537 178.16 83.2207 177.254 83.2207C176.348 83.2207 175.614 83.9537 175.614 84.8579C175.614 85.7622 176.348 86.4952 177.254 86.4952Z" stroke="#6F7D95" stroke-width="2" stroke-miterlimit="10"/>
<path d="M177.254 82.4016C177.48 82.4016 177.664 82.2184 177.664 81.9923C177.664 81.7663 177.48 81.583 177.254 81.583C177.027 81.583 176.844 81.7663 176.844 81.9923C176.844 82.2184 177.027 82.4016 177.254 82.4016Z" fill="#6F7D95"/>
<path d="M179.762 83.0959C179.936 82.9506 179.958 82.6925 179.813 82.5193C179.667 82.3461 179.408 82.3235 179.235 82.4688C179.061 82.6141 179.039 82.8723 179.184 83.0455C179.33 83.2187 179.589 83.2412 179.762 83.0959Z" fill="#6F7D95"/>
<path d="M180.739 85.0789C180.779 84.8563 180.63 84.644 180.407 84.6047C180.184 84.5655 179.971 84.7141 179.932 84.9368C179.892 85.1594 180.041 85.3717 180.264 85.4109C180.487 85.4502 180.7 85.3015 180.739 85.0789Z" fill="#6F7D95"/>
<path d="M179.37 87.4315C179.567 87.3185 179.634 87.0682 179.521 86.8724C179.407 86.6766 179.156 86.6096 178.96 86.7226C178.764 86.8356 178.697 87.0859 178.81 87.2817C178.923 87.4775 179.174 87.5446 179.37 87.4315Z" fill="#6F7D95"/>
<path d="M177.211 87.6522C177.289 87.4398 177.179 87.2049 176.966 87.1276C176.753 87.0503 176.518 87.1598 176.441 87.3722C176.363 87.5846 176.473 87.8195 176.686 87.8968C176.899 87.9741 177.134 87.8646 177.211 87.6522Z" fill="#6F7D95"/>
<path d="M175.127 86.3871C175.34 86.3098 175.449 86.0749 175.372 85.8625C175.295 85.65 175.059 85.5405 174.846 85.6178C174.633 85.6951 174.524 85.93 174.601 86.1424C174.679 86.3549 174.914 86.4644 175.127 86.3871Z" fill="#6F7D95"/>
<path d="M175.32 83.8317C175.434 83.6359 175.366 83.3856 175.17 83.2726C174.974 83.1595 174.723 83.2266 174.61 83.4224C174.497 83.6182 174.564 83.8685 174.76 83.9815C174.956 84.0945 175.207 84.0275 175.32 83.8317Z" fill="#6F7D95"/>
<path d="M6.57555 99.9143L5.0874 88.2412H22.7128L31.7726 96.2968L27.3257 106.654C27.3257 106.654 9.3839 103.696 6.57555 99.9143Z" fill="#FF4D52"/>
<path opacity="0.05" d="M31.7784 96.2968L27.3315 106.654C27.3315 106.654 9.3839 103.696 6.57555 99.9143L6.51111 99.4056L5.14404 88.6115L5.13037 88.5043L5.09717 88.2432H22.7226L31.7784 96.2968Z" fill="black"/>
<path d="M104.753 52.4032V56.1844C104.753 56.1844 95.6439 63.591 93.4762 70.5785C93.0978 71.7131 92.9549 72.9128 93.0563 74.1044C93.8804 81.8306 69.3396 67.8556 69.3396 67.8556L70.4313 67.3254C76.0734 64.6104 101.821 52.255 104.753 52.4032Z" fill="#7597CE"/>
<path d="M125.509 70.6526C125.509 70.6526 134.039 66.4699 135.408 63.3747C135.592 62.9595 135.765 62.5405 135.969 62.1331C136.814 60.4355 138.591 56.4535 137.697 54.5414C136.545 52.0758 140.497 54.8708 140.497 54.8708L138.191 66.54L132.59 69.6586L125.343 70.6526" fill="#FF4D52"/>
<path opacity="0.05" d="M125.509 70.6526C125.509 70.6526 134.039 66.4699 135.408 63.3747C135.592 62.9595 135.765 62.5405 135.969 62.1331C136.814 60.4355 138.591 56.4535 137.697 54.5414C136.545 52.0758 140.497 54.8708 140.497 54.8708L138.191 66.54L132.59 69.6586L125.343 70.6526" fill="black"/>
<path opacity="0.05" d="M31.7784 96.2968L27.3315 106.654C27.3315 106.654 9.3839 103.696 6.57555 99.9143L6.51111 99.4056C6.58337 99.3569 6.65953 99.3062 6.7396 99.2575C6.7396 99.2575 12.1747 103.532 24.531 104.52C24.531 104.52 31.9522 98.6006 19.9181 92.0264C19.9181 92.0264 9.4503 92.3538 5.13818 88.6135L5.09131 88.5745L5.12451 88.5063C5.15315 88.4504 5.19937 88.3634 5.26317 88.2451H22.7167L31.7784 96.2968Z" fill="black"/>
<path opacity="0.05" d="M93.0563 74.1027C93.8804 81.8308 69.3396 67.8558 69.3396 67.8558L70.4313 67.3257C71.1539 68.0936 74.0384 70.684 79.8055 70.4033C83.5161 70.222 89.1504 70.3877 93.4859 70.5768C93.1042 71.7108 92.958 72.9105 93.0563 74.1027Z" fill="black"/>
<path opacity="0.05" d="M103.516 77.145V100.489H92.7439C93.4548 95.0591 93.0447 87.1439 86.1351 82.6064C83.558 80.9252 80.5657 79.9872 77.4883 79.8957C74.4109 79.8042 71.368 80.5628 68.6952 82.0879C64.1663 84.6685 59.1023 89.9155 55.8839 100.489H45.5332V77.145H103.516Z" fill="black"/>
<path opacity="0.05" d="M191.924 84.4483C191.518 87.025 190.866 89.5277 189.856 91.66C189.726 91.9471 189.584 92.2272 189.431 92.5C189.456 92.4045 189.641 91.7379 189.856 90.6893C190.903 85.5827 192.694 71.4518 180.695 70.6448C180.539 70.6351 180.384 70.6253 180.23 70.6195C179.27 69.7976 178.236 69.0649 177.143 68.4307H187.191C187.191 68.4307 191.143 76.4863 191.967 80.4312C192.206 81.5383 192.139 82.967 191.924 84.4483Z" fill="black"/>
<path d="M189.757 92.3403C189.913 91.777 195.479 71.4596 181.021 70.487C166.36 69.5008 164.548 80.5151 162.902 95.4764C162.902 95.4764 116.617 98.9282 91.7401 106.163C91.7401 106.163 97.7122 89.8298 86.4671 82.4428C83.89 80.7616 80.8977 79.8235 77.8203 79.7321C74.7429 79.6406 71.7 80.3992 69.0272 81.9243C63.4808 85.0857 57.1279 92.2545 54.3488 108.299H26.6716C26.6716 108.299 21.3986 108.629 19.5882 106.155C19.5882 106.155 12.167 106.319 7.56387 102.374C7.56387 102.374 2.6229 101.388 6.57568 98.9223C6.57568 98.9223 12.1767 103.197 24.5311 104.185C24.5311 104.185 31.9524 98.2655 19.9183 91.6912C19.9183 91.6912 9.37231 92.0206 5.09339 88.2394C5.09339 88.2394 6.59521 85.1384 10.0226 81.3864C14.7105 76.2398 20.6838 72.4281 27.3317 70.3408C31.8111 68.9588 36.4801 68.2866 41.1683 68.3489L70.242 67.4445C70.242 67.4445 73.0503 71.062 79.7958 70.7326C86.5413 70.4032 99.7276 71.2257 99.7276 71.2257H99.8585L126.989 69.9997C127.768 69.89 128.539 69.7272 129.295 69.5125C133.229 68.4463 140.689 65.2128 139.343 56.1826L182.008 58.8139C183.616 58.8876 185.213 59.1128 186.779 59.4863C188.97 60.0477 190.974 61.0729 190.409 62.9245C189.257 66.7058 192.386 67.1989 192.386 67.1989C192.386 67.1989 192.452 67.7037 192.534 68.5808C192.925 72.7168 193.692 85.152 189.757 92.3403Z" fill="#FF4D52"/>
<path opacity="0.05" d="M59.2877 74.2681C59.2877 74.2681 41.4963 74.4318 29.7981 84.7932H36.3874C36.3874 84.7932 54.8369 80.0257 59.2838 76.2445L59.2877 74.2681Z" fill="black"/>
<path d="M59.1217 74.1025C59.1217 74.1025 41.3303 74.2663 29.6321 84.6276H36.2213C36.2213 84.6276 54.6709 79.8602 59.1178 76.0789L59.1217 74.1025Z" fill="#FFEC9F"/>
<path opacity="0.05" d="M27.4956 70.5063V74.9249L12.5086 81.8306L10.1885 81.5519C14.8758 76.4056 20.8484 72.5939 27.4956 70.5063Z" fill="black"/>
<path d="M27.3295 70.3428V74.7614L12.3406 81.6651L10.0205 81.3863C14.7086 76.2405 20.6819 72.4295 27.3295 70.3428Z" fill="#FFEC9F"/>
<path opacity="0.05" d="M48.5798 90.3794C48.5798 90.3794 40.5082 95.3106 39.6841 106.167H44.297C44.297 106.167 46.1093 94.3302 51.3803 90.3794H48.5798Z" fill="black"/>
<path opacity="0.05" d="M143.958 90.7091L102.116 95.6403C102.116 95.6403 99.3487 78.0595 99.8604 71.2201L126.991 69.9941C127.769 69.8862 128.539 69.7253 129.295 69.5127V71.1441L149.721 66.2129C149.721 66.2129 153.182 71.3078 143.958 90.7091Z" fill="black"/>
<path d="M139.345 51.4151C139.345 51.4151 148.241 50.2651 152.194 57.8276L139.472 57.3384L139.345 51.4151Z" fill="#FF4D52"/>
<path opacity="0.05" d="M151.576 60.4786C151.227 61.572 151.491 62.7746 153.516 63.6069C155.201 64.3007 157.178 63.4977 157.754 61.7728C158.09 60.767 157.859 59.6287 156.043 58.7029C154.227 57.7771 152.188 58.5684 151.576 60.4786Z" fill="black"/>
<path d="M5.40576 90.7051C5.40576 90.7051 15.9634 96.1625 23.5409 94.0965" stroke="#FF4D52" stroke-miterlimit="10"/>
<path d="M5.77881 93.6519C5.77881 93.6519 12.6005 98.9027 26.3883 97.6826" stroke="#FF4D52" stroke-miterlimit="10"/>
<path d="M6.09326 96.1255C6.09326 96.1255 12.8602 101.986 26.7653 100.129" stroke="#FF4D52" stroke-miterlimit="10"/>
<path opacity="0.05" d="M151.684 56.9448C151.684 56.9448 146.18 61.687 141.157 63.831C141.157 63.831 148.786 65.1856 151.684 56.9448Z" fill="black"/>
<path opacity="0.1" d="M93.3805 70.9024C93.3805 70.9024 119.495 73.3641 129.377 71.0623C129.377 71.0623 129.905 71.4112 126.758 70.0039L93.3805 70.9024Z" fill="black"/>
<path opacity="0.05" d="M192.536 68.5808C190.909 67.5146 188.329 65.3024 188.681 62.8407C188.857 61.6069 187.982 60.4531 186.781 59.4844C188.972 60.0457 190.975 61.0709 190.411 62.9226C189.259 66.7038 192.387 67.1969 192.387 67.1969C192.387 67.1969 192.452 67.7037 192.536 68.5808Z" fill="black"/>
<path d="M61.2799 85.7408C61.2955 85.0898 61.2799 84.4135 61.231 83.7917C61.231 83.6728 61.2115 83.5578 61.1998 83.4448C61.5669 83.7216 61.7857 83.9321 61.7857 83.9321L61.4634 67.0061L59.6863 58.1397C59.6863 51.8519 56.294 50.0802 56.294 50.0802C56.294 50.0802 54.5168 49.2733 54.0324 48.1467C53.5481 47.0201 49.2555 44.6383 49.2536 44.6383C49.2196 44.228 49.2065 43.8162 49.2145 43.4046C49.2145 43.2974 49.2145 43.1863 49.2243 43.0752C50.3004 42.363 51.081 41.2853 51.4212 40.0421C51.7613 38.799 51.6379 37.4749 51.0737 36.3157C51.312 36.3157 51.5053 36.2163 51.5952 35.8635C51.8803 34.7467 51.6049 33.0646 50.9565 32.1719C50.8179 31.9852 50.6616 31.8122 50.4898 31.6554C50.2886 31.4539 50.0767 31.2633 49.8551 31.0843C49.3004 30.6243 48.6833 30.141 47.9959 30.1799C47.6059 30.2309 47.2311 30.3637 46.8964 30.5698C45.1791 31.4715 43.4663 32.3811 41.7581 33.2985C41.1273 33.6396 40.477 33.9982 40.0356 34.6102C39.5943 35.2223 39.4165 36.0058 39.2935 36.7757C39.1901 37.2973 39.1657 37.8315 39.2213 38.3603C39.2729 38.8415 39.4936 39.289 39.8442 39.6233C39.9149 39.7086 39.9956 39.7851 40.0845 39.8514C40.4321 40.1047 40.8793 40.1671 41.2426 40.3718C41.5171 41.1675 41.977 41.887 42.5842 42.4709C42.5842 42.5703 42.5706 42.6658 42.5628 42.775C42.5413 43.0537 42.5081 43.3597 42.4651 43.6696C42.4651 43.6696 41.2719 43.6384 39.4947 46.0553C37.7175 48.4722 33.8409 48.7957 33.8409 48.7957C33.8409 48.7957 32.3879 48.1506 30.7728 55.4051C29.1577 62.6596 28.6733 67.4895 29.4799 68.3003C29.8224 68.5954 30.2084 68.836 30.6243 69.0137C31.9935 69.7034 33.4667 70.1643 34.9853 70.3781C35.0046 70.4362 35.0374 70.4889 35.081 70.532L35.1962 71.9373C35.2939 74.9039 35.4071 80.8544 34.8056 82.174C33.9971 83.9477 34.9677 85.0762 34.9677 85.0762L35.163 85.0625C35.1991 85.1238 35.2396 85.1825 35.2841 85.238L36.0653 85.1853C36.0086 88.4988 35.8563 93.0948 35.454 94.1044C34.8076 95.7163 35.454 104.583 35.454 104.583L34.3232 120.542C34.3232 120.542 33.7042 128.872 34.2842 129.837C33.9678 131.57 33.3995 134.872 33.5167 135.694C33.6788 136.823 37.3933 138.435 37.3933 138.435C37.3933 138.435 41.7542 139.409 43.8537 139.08C44.9512 138.91 45.3867 138.17 45.3906 137.52C46.8143 137.749 48.6677 137.967 49.8297 137.787C51.9291 137.466 51.6069 135.047 50.4761 135.209C49.3454 135.371 48.0525 133.102 47.0917 131.973C46.6034 131.404 46.1972 130.387 45.9199 129.516C46.1241 129.485 46.3117 129.385 46.4511 129.233C46.9354 128.426 47.7439 121.012 47.7439 121.012L49.8434 108.116C49.8434 108.116 50.9741 101.829 51.9428 100.379C52.6751 99.2831 53.5911 91.1086 53.9953 87.1715H54.0305H54.0422L54.0852 87.0331L54.6925 85.0762C55.0167 85.6473 55.8331 85.9299 56.7842 86.0507C56.6826 86.4639 56.5986 86.8011 56.5498 86.9941C56.3076 87.9686 59.8386 89.5728 60.6901 88.7678C61.0475 88.4306 61.233 87.2085 61.276 85.8714H61.3052L61.2799 85.7408ZM40.0591 129.701C40.0044 130.015 39.9497 130.342 39.895 130.675C39.772 130.285 39.6743 129.935 39.6079 129.675C39.7681 129.681 39.9185 129.689 40.0591 129.701Z" fill="url(#paint2_linear_443_7196)"/>
<path d="M45.4744 126.34C45.4744 126.34 46.0974 129.135 47.0368 130.221C47.9762 131.307 49.2143 133.48 50.3021 133.326C51.3899 133.172 51.7024 135.499 49.6792 135.809C47.6559 136.119 43.457 135.187 43.457 135.187C43.457 135.187 39.8792 133.628 39.7249 132.548C39.5707 131.468 40.6585 125.873 40.6585 125.873L45.4744 126.34Z" fill="#53526B"/>
<path opacity="0.05" d="M45.4744 126.34C45.4744 126.34 46.0974 129.135 47.0368 130.221C47.9762 131.307 49.2143 133.48 50.3021 133.326C51.3899 133.172 51.7024 135.499 49.6792 135.809C47.6559 136.119 43.457 135.187 43.457 135.187C43.457 135.187 39.8792 133.628 39.7249 132.548C39.5707 131.468 40.6585 125.873 40.6585 125.873L45.4744 126.34Z" fill="black"/>
<path d="M39.7191 127.582C39.7191 127.582 40.3421 130.377 41.2814 131.463C42.2208 132.548 43.459 134.722 44.5468 134.568C45.6346 134.414 45.947 136.741 43.9238 137.051C41.9005 137.361 37.7017 136.431 37.7017 136.431C37.7017 136.431 34.1239 134.872 33.9696 133.792C33.8153 132.712 34.9031 127.116 34.9031 127.116L39.7191 127.582Z" fill="#53526B"/>
<path d="M53.8743 85.0488C53.8743 85.0488 52.6303 98.3982 51.6967 99.7957C50.7632 101.193 49.6754 107.247 49.6754 107.247L47.6541 119.665C47.6541 119.665 46.8729 126.806 46.4101 127.582C45.9472 128.358 40.1743 128.024 40.1743 128.024L43.756 86.9122L53.8743 85.0488Z" fill="#5F5D7E"/>
<path opacity="0.05" d="M53.8743 85.0488C53.8743 85.0488 52.6303 98.3982 51.6967 99.7957C50.7632 101.193 49.6754 107.247 49.6754 107.247L47.6541 119.665C47.6541 119.665 46.8729 126.806 46.4101 127.582C45.9472 128.358 40.1743 128.024 40.1743 128.024L43.756 86.9122L53.8743 85.0488Z" fill="black"/>
<path d="M56.3621 78.6851L55.9559 79.9734L53.7589 86.9336L53.7159 87.0662H53.7042C53.4093 87.1324 47.1833 88.5611 45.8396 88.9997C45.7671 89.022 45.6961 89.0487 45.6268 89.0796C45.0038 89.3895 44.2265 100.566 44.2265 100.566C44.2265 100.566 43.7597 111.122 43.4453 111.898C43.1309 112.673 41.8829 128.66 41.1115 128.196C40.3401 127.732 34.7351 128.196 34.7351 128.196C34.1121 127.574 34.7351 119.193 34.7351 119.193L35.8229 103.824C35.8229 103.824 35.1999 95.2874 35.8229 93.734C36.4459 92.1806 36.4459 81.7822 36.4459 81.7822L49.185 79.8136L50.4154 79.6187L56.3621 78.6851Z" fill="#5F5D7E"/>
<path opacity="0.02" d="M55.9561 79.9732L53.7591 86.9335L53.7063 87.0699C53.4114 87.1362 47.1854 88.5649 45.8418 89.0034H45.707L49.1852 79.8134L49.2848 79.5483L50.4156 79.6205L55.9561 79.9732Z" fill="black"/>
<path opacity="0.1" d="M41.43 47.6396C41.43 47.6396 47.1854 53.8495 50.7632 48.7253L54.1848 51.0545L53.5618 54.6252L55.5831 81.6358C55.5831 81.6358 50.2945 81.4798 46.5624 82.7214C45.523 83.0894 44.3998 83.1533 43.3252 82.9058C42.2506 82.6582 41.2692 82.1094 40.4965 81.3239L41.1195 57.5742L39.7192 50.2787L41.43 47.6396Z" fill="black"/>
<path d="M41.43 47.1738C41.43 47.1738 47.1854 53.3836 50.7632 48.2595L54.1848 50.5886L53.5618 54.1594L55.585 81.1777C55.585 81.1777 50.2964 81.0218 46.5643 82.2634C45.5249 82.6314 44.4018 82.6953 43.3271 82.4477C42.2525 82.2002 41.2711 81.6513 40.4985 80.8659L41.1215 57.1162L39.7212 49.8207L41.43 47.1738Z" fill="#53526B"/>
<path d="M52.9172 74.8276V75.8041H53.2317V75.1531H54.3741V75.8041H54.6886V74.8296L52.9172 74.8276Z" fill="#E82127"/>
<path d="M53.1985 74.512H54.4054C54.4845 74.4931 54.5568 74.453 54.6147 74.3959C54.6725 74.3389 54.7136 74.2672 54.7335 74.1885H52.8723C52.8924 74.2671 52.9335 74.3387 52.9913 74.3957C53.0492 74.4527 53.1214 74.4929 53.2004 74.512" fill="#E82127"/>
<path d="M51.9681 75.8043C52.0365 75.7778 52.0974 75.735 52.1454 75.6796C52.1934 75.6242 52.2271 75.5579 52.2435 75.4866H50.8354V74.1885H50.519V75.8043H51.9662" fill="#E82127"/>
<path d="M48.1755 74.5062H49.2906C49.37 74.4862 49.4431 74.4467 49.5032 74.3912C49.5632 74.3356 49.6083 74.2659 49.6344 74.1885H47.8572V75.1357H49.3063V75.471H48.1696C48.0829 75.4939 48.002 75.535 47.9323 75.5914C47.8626 75.6479 47.8057 75.7184 47.7654 75.7984H49.6148V74.8239H48.1677V74.5042" fill="#E82127"/>
<path d="M45.4238 74.5101H46.6307C46.7098 74.4912 46.7822 74.451 46.84 74.394C46.8979 74.337 46.9389 74.2652 46.9588 74.1865H45.0977C45.1177 74.2651 45.1589 74.3368 45.2167 74.3938C45.2745 74.4508 45.3468 74.491 45.4258 74.5101" fill="#E82127"/>
<path d="M45.4238 75.1473H46.6307C46.7099 75.1286 46.7824 75.0885 46.8403 75.0314C46.8981 74.9744 46.9391 74.9025 46.9588 74.8237H45.0977C45.1177 74.9023 45.1589 74.974 45.2167 75.031C45.2745 75.088 45.3468 75.1282 45.4258 75.1473" fill="#E82127"/>
<path d="M45.4238 75.8045H46.6307C46.7098 75.7856 46.7822 75.7455 46.84 75.6884C46.8979 75.6314 46.9389 75.5596 46.9588 75.481H45.0977C45.1177 75.5595 45.1589 75.6312 45.2167 75.6882C45.2745 75.7452 45.3468 75.7854 45.4258 75.8045" fill="#E82127"/>
<path d="M42.2854 74.1904C42.306 74.2682 42.3471 74.3391 42.4045 74.3957C42.4618 74.4522 42.5333 74.4924 42.6115 74.512H43.1193L43.1447 74.5218V75.8004H43.4611V74.5218L43.4904 74.512H43.9981C44.0761 74.4918 44.1473 74.4515 44.2045 74.395C44.2618 74.3385 44.3031 74.268 44.3243 74.1904H42.2854Z" fill="#E82127"/>
<path d="M48.5096 70.9941L50.0934 62.1004C51.603 62.1004 52.0796 62.2661 52.1499 62.9405C52.1499 62.9405 53.1634 62.5643 53.6732 61.7983C52.4117 61.2331 51.0563 60.906 49.6755 60.8335L48.5037 62.2544L47.3319 60.8335C45.9511 60.906 44.5957 61.2331 43.3342 61.7983C43.8439 62.5643 44.8575 62.9405 44.8575 62.9405C44.9259 62.2661 45.4024 62.1004 46.9023 62.0985L48.4998 70.9941" fill="#E82127"/>
<path d="M48.5095 60.4221C50.3469 60.3994 52.1683 60.764 53.8547 61.4921C53.9791 61.2831 54.0856 61.0641 54.1731 60.8372C50.5407 59.3687 46.4783 59.3687 42.8459 60.8372C42.9393 61.0625 43.0476 61.2813 43.1701 61.4921C44.8566 60.764 46.678 60.3994 48.5154 60.4221" fill="#E82127"/>
<path d="M53.4075 79.3047C53.4075 79.3047 53.4075 83.3413 54.341 85.0487C55.2745 86.7561 60.7174 85.8283 60.7174 85.8283L59.6296 80.0843L53.4075 79.3047Z" fill="#D39999"/>
<path d="M60.1256 88.6193C59.3053 89.399 55.9052 87.8397 56.1396 86.9119C56.3037 86.2551 56.8778 83.9045 57.204 82.5713L57.4305 81.6338C57.4305 81.6338 59.4225 81.012 60.1256 81.6338C60.3814 81.8599 60.5611 82.7506 60.6451 83.8265C60.7896 85.6957 60.647 88.1262 60.1256 88.6193Z" fill="#FDC2CC"/>
<path d="M52.6283 49.9671L47.1854 54.1576C47.1854 54.1576 39.0982 53.6918 41.1195 49.8111C41.9996 48.1044 42.5307 46.24 42.6819 44.3264C42.7476 43.6204 42.7476 42.9098 42.6819 42.2038C42.6819 42.2038 50.148 35.382 49.2145 43.1355C49.1409 43.7306 49.0979 44.3291 49.0856 44.9286C48.9821 50.7486 52.6283 49.9671 52.6283 49.9671Z" fill="#FDC2CC"/>
<path opacity="0.1" d="M49.2067 43.1374C49.1331 43.7325 49.0901 44.331 49.0778 44.9305C48.24 45.4843 47.2568 45.7786 46.2519 45.7764C44.8594 45.7764 43.8341 44.4238 42.9084 43.5252C43.0119 42.2369 42.676 42.2057 42.676 42.2057C42.676 42.2057 50.1402 35.3741 49.2067 43.1374Z" fill="black"/>
<path d="M46.2517 45.4647C49.0863 45.4647 51.3841 43.1714 51.3841 40.3424C51.3841 37.5135 49.0863 35.2202 46.2517 35.2202C43.4172 35.2202 41.1194 37.5135 41.1194 40.3424C41.1194 43.1714 43.4172 45.4647 46.2517 45.4647Z" fill="#FDC2CC"/>
<path opacity="0.1" d="M42.5978 45.2324C42.5978 45.2324 41.7424 45.3104 40.0316 47.6376C38.3208 49.9648 34.577 50.2767 34.577 50.2767C34.577 50.2767 33.1768 49.6549 31.6222 56.6405C30.0677 63.626 29.6009 68.2824 30.3782 69.0582C31.1555 69.8339 34.2665 70.9215 35.8211 70.9215C35.8211 70.9215 36.2878 80.7001 35.5105 82.4075C34.7333 84.1149 35.6668 85.2025 35.6668 85.2025L42.5021 84.7367C42.5021 84.7367 44.8359 81.7877 45.3027 76.6655C45.7694 71.5432 47.324 56.9504 46.5467 55.243C45.7694 53.5356 42.3478 49.1891 42.5021 48.7233C42.6564 48.2574 42.5978 45.2324 42.5978 45.2324Z" fill="black"/>
<path d="M42.5841 45.1861C42.5841 45.1861 41.4338 45.1549 39.723 47.484C38.0122 49.8132 34.2801 50.1231 34.2801 50.1231C34.2801 50.1231 32.8799 49.5014 31.3253 56.4869C29.7708 63.4725 29.304 68.1288 30.0852 68.8987C30.8664 69.6686 33.9735 70.7621 35.5281 70.7621C35.5281 70.7621 35.9948 80.5407 35.2176 82.2481C34.4403 83.9555 35.3738 85.0431 35.3738 85.0431L42.2091 84.5773C42.2091 84.5773 44.5429 81.6283 45.0097 76.5061C45.4764 71.3838 47.031 56.791 46.2537 55.0836C45.4764 53.3762 42.0548 49.0297 42.2091 48.5638C42.3634 48.098 42.5841 45.1861 42.5841 45.1861Z" fill="#D39999"/>
<path d="M38.4829 65.1794C38.4829 65.1794 46.2654 56.2721 45.1718 62.3844C44.3906 66.7309 41.4397 69.0601 40.0394 69.5259C38.6391 69.9917 38.4829 65.1794 38.4829 65.1794Z" fill="#FDC2CC"/>
<path opacity="0.1" d="M60.6451 83.8265C59.901 83.2593 58.4968 82.3764 57.204 82.5713L57.4305 81.6338C57.4305 81.6338 59.4225 81.012 60.1256 81.6338C60.3834 81.8599 60.5611 82.7506 60.6451 83.8265Z" fill="black"/>
<path opacity="0.1" d="M49.1286 46.1641C49.1286 46.1641 53.095 48.7252 53.5618 49.8128C54.0285 50.9004 55.7393 51.6761 55.7393 51.6761C55.7393 51.6761 59.0047 53.3835 59.0047 59.4374L60.7155 67.9744L52.9349 78.8387C52.9349 78.8387 52.0014 67.9725 51.5346 65.3334C51.0679 62.6943 50.4468 57.7319 50.4468 57.7319C50.4468 57.7319 48.1131 54.783 48.4255 54.0072C48.738 53.2315 49.1286 46.1641 49.1286 46.1641Z" fill="black"/>
<path d="M49.1149 46.1177C49.1149 46.1177 53.2513 48.4157 53.7161 49.5013C54.1809 50.587 55.8956 51.3568 55.8956 51.3568C55.8956 51.3568 59.1609 53.0643 59.1609 59.1181L60.8717 67.6552L61.1822 83.9535C61.1822 83.9535 58.3817 81.3144 56.3604 82.556C54.3391 83.7976 53.095 78.5194 53.095 78.5194C53.095 78.5194 52.1615 67.6532 51.6948 65.0141C51.228 62.3751 50.607 57.4127 50.607 57.4127C50.607 57.4127 48.2732 54.4754 48.5857 53.6958C48.8982 52.9161 49.1149 46.1177 49.1149 46.1177Z" fill="#D39999"/>
<path opacity="0.1" d="M50.7573 34.1129C50.494 33.7786 50.1895 33.4787 49.8511 33.2202C49.316 32.7758 48.7243 32.3119 48.0603 32.3509C47.6846 32.4008 47.3238 32.5297 47.0018 32.7291C45.3483 33.5983 43.6993 34.4767 42.0549 35.3642C41.4476 35.6917 40.8207 36.0386 40.3969 36.6272C39.9731 37.2159 39.8012 37.9721 39.6821 38.7128C39.5824 39.2145 39.5587 39.7283 39.6118 40.237C39.6602 40.7357 39.9029 41.1955 40.2875 41.5175C40.7308 41.8391 41.3382 41.8411 41.7093 42.2621C41.9241 42.5057 42.0178 42.8468 42.1702 43.1431C42.3225 43.4393 42.5861 43.7278 42.8869 43.6752C43.1876 43.6225 43.3693 43.3048 43.4122 42.9832C43.4314 42.6573 43.4124 42.3302 43.3556 42.0087C43.297 41.424 43.3712 40.8042 43.711 40.3695C43.9454 40.0732 44.2813 39.8939 44.5078 39.5899C45.0508 38.857 44.8027 37.6408 45.3984 36.9527C45.5713 36.7729 45.789 36.6421 46.0292 36.5736C46.2693 36.5051 46.5234 36.5014 46.7655 36.5629C47.2478 36.6643 47.6892 36.9255 48.1325 37.1477C48.7314 37.4492 49.3588 37.6908 50.0054 37.8688C50.5483 38.0169 51.1772 38.3717 51.3627 37.6505C51.6459 36.5922 51.3725 34.9725 50.7573 34.1129Z" fill="black"/>
<path d="M50.601 33.9571C50.3377 33.6228 50.0333 33.3229 49.6949 33.0645C49.1598 32.6201 48.568 32.1562 47.904 32.1952C47.5284 32.2451 47.1676 32.374 46.8455 32.5733C45.1933 33.4426 43.8204 32.6201 41.8987 35.2085C41.4886 35.762 40.6644 35.8829 40.2406 36.4715C39.8168 37.0601 39.645 37.8164 39.5258 38.557C39.4261 39.0587 39.4025 39.5725 39.4555 40.0812C39.504 40.5799 39.7466 41.0398 40.1313 41.3618C40.5746 41.6834 41.1819 41.6853 41.553 42.1063C41.7678 42.35 41.8616 42.691 42.0139 42.9873C42.1662 43.2836 42.4299 43.572 42.7306 43.5194C43.0314 43.4668 43.213 43.1491 43.256 42.8275C43.2751 42.5015 43.2561 42.1745 43.1993 41.8529C43.1408 41.2682 43.215 40.6484 43.5548 40.2137C43.7891 39.9175 44.125 39.7382 44.3516 39.4341C44.8945 38.7012 44.6465 37.485 45.2421 36.797C45.4151 36.6171 45.6328 36.4863 45.8729 36.4178C46.1131 36.3493 46.3672 36.3457 46.6092 36.4072C47.0916 36.5085 47.533 36.7697 47.9763 36.9919C48.5752 37.2934 49.2025 37.535 49.8492 37.7131C50.3921 37.8612 51.0209 38.2159 51.2065 37.4948C51.4916 36.4364 51.226 34.8167 50.601 33.9571Z" fill="#865A61"/>
<path d="M36.608 56.9526C36.608 56.9526 36.4518 62.6966 35.6745 63.4724C34.8972 64.2481 36.1412 65.1798 36.1412 65.1798L39.2523 64.4001C39.2523 64.4001 38.4711 69.5223 41.7404 68.9025C41.7404 68.9025 39.5628 70.9198 37.3853 71.2317C35.2077 71.5436 35.3581 70.7678 35.3581 70.7678L32.0928 66.8872L36.608 56.9526Z" fill="#D39999"/>
<path opacity="0.1" d="M36.5827 57.6504C36.5827 57.6504 34.5087 62.9285 36.0652 65.1018L39.4868 64.3221C39.4868 64.3221 36.3757 65.2538 36.8425 63.3905C37.3092 61.5271 36.5827 57.6504 36.5827 57.6504Z" fill="black"/>
<path opacity="0.1" d="M35.4421 70.6896C35.4421 70.6896 39.9535 70.9995 41.1975 70.0679C39.5603 71.3194 37.6256 72.1253 35.5828 72.4068L35.4421 70.6896Z" fill="black"/>
<path opacity="0.1" d="M54.8877 60.7554C54.8877 60.7554 57.2215 67.8969 57.0652 68.9825C56.909 70.0681 56.5985 82.0219 56.5985 82.0219L56.1317 81.866L56.288 68.8266L54.8877 60.7554Z" fill="black"/>
<path d="M153.145 80.9497C153.145 80.9497 156.562 87.6448 153.777 91.3072C150.993 94.9695 154.031 104.951 154.031 104.951" stroke="#6C63FF" stroke-miterlimit="10"/>
<path d="M154.156 78.8663C154.156 80.1566 153.207 81.2052 153.207 81.2052C153.207 81.2052 152.258 80.1585 152.258 78.8663C152.258 77.574 153.207 76.5273 153.207 76.5273C153.207 76.5273 154.156 77.576 154.156 78.8663Z" fill="#6C63FF"/>
<path d="M154.916 80.9497C154.916 80.9497 151.498 87.6448 154.283 91.3072C157.068 94.9695 154.029 104.951 154.029 104.951" stroke="#6C63FF" stroke-miterlimit="10"/>
<path d="M153.902 78.8663C153.902 80.1566 154.852 81.2052 154.852 81.2052C154.852 81.2052 155.801 80.1585 155.801 78.8663C155.801 77.574 154.852 76.5273 154.852 76.5273C154.852 76.5273 153.902 77.576 153.902 78.8663Z" fill="#6C63FF"/>
<path opacity="0.1" d="M153.902 78.8663C153.902 80.1566 154.852 81.2052 154.852 81.2052C154.852 81.2052 155.801 80.1585 155.801 78.8663C155.801 77.574 154.852 76.5273 154.852 76.5273C154.852 76.5273 153.902 77.576 153.902 78.8663Z" fill="black"/>
<path d="M156.309 80.9497C156.309 80.9497 159.726 87.6448 156.941 91.3072C154.156 94.9695 157.195 104.951 157.195 104.951" stroke="#6C63FF" stroke-miterlimit="10"/>
<path d="M157.32 78.8663C157.32 80.1566 156.371 81.2052 156.371 81.2052C156.371 81.2052 155.422 80.1585 155.422 78.8663C155.422 77.574 156.371 76.5273 156.371 76.5273C156.371 76.5273 157.32 77.576 157.32 78.8663Z" fill="#6C63FF"/>
<path d="M156.789 84.23C155.893 85.1597 154.481 85.2572 154.481 85.2572C154.481 85.2572 154.524 83.8461 155.42 82.9183C156.316 81.9905 157.728 81.8911 157.728 81.8911C157.728 81.8911 157.685 83.3003 156.789 84.23Z" fill="#6C63FF"/>
<path d="M156.877 88.8496C155.98 89.7794 154.568 89.8768 154.568 89.8768C154.568 89.8768 154.611 88.4657 155.508 87.5379C156.404 86.6101 157.808 86.5088 157.808 86.5088C157.808 86.5088 157.773 87.918 156.877 88.8496Z" fill="#6C63FF"/>
<path d="M152.016 91.3892C152.864 92.3638 152.834 93.7749 152.834 93.7749C152.834 93.7749 151.43 93.6054 150.582 92.6308C149.735 91.6563 149.764 90.2451 149.764 90.2451C149.764 90.2451 151.168 90.4147 152.016 91.3892Z" fill="#6C63FF"/>
<path d="M152.803 81.5402C153.881 82.2536 154.231 83.6218 154.231 83.6218C154.231 83.6218 152.83 83.8323 151.754 83.1268C150.678 82.4212 150.327 81.0451 150.327 81.0451C150.327 81.0451 151.725 80.8268 152.803 81.5402Z" fill="#6C63FF"/>
<path opacity="0.1" d="M152.803 81.5402C153.881 82.2536 154.231 83.6218 154.231 83.6218C154.231 83.6218 152.83 83.8323 151.754 83.1268C150.678 82.4212 150.327 81.0451 150.327 81.0451C150.327 81.0451 151.725 80.8268 152.803 81.5402Z" fill="black"/>
<path d="M158.08 80.9497C158.08 80.9497 154.662 87.6448 157.447 91.3072C160.232 94.9695 157.193 104.951 157.193 104.951" stroke="#6C63FF" stroke-miterlimit="10"/>
<path d="M157.068 78.8663C157.068 80.1566 158.017 81.2052 158.017 81.2052C158.017 81.2052 158.967 80.1585 158.967 78.8663C158.967 77.574 158.017 76.5273 158.017 76.5273C158.017 76.5273 157.068 77.576 157.068 78.8663Z" fill="#6C63FF"/>
<path opacity="0.1" d="M157.068 78.8663C157.068 80.1566 158.017 81.2052 158.017 81.2052C158.017 81.2052 158.967 80.1585 158.967 78.8663C158.967 77.574 158.017 76.5273 158.017 76.5273C158.017 76.5273 157.068 77.576 157.068 78.8663Z" fill="black"/>
<path d="M157.342 84.3295C156.433 85.2494 156.365 86.6684 156.365 86.6684C156.365 86.6684 157.777 86.5885 158.685 85.6685C159.593 84.7485 159.662 83.3296 159.662 83.3296C159.662 83.3296 158.248 83.4095 157.342 84.3295Z" fill="#6C63FF"/>
<path opacity="0.1" d="M157.342 84.3295C156.433 85.2494 156.365 86.6684 156.365 86.6684C156.365 86.6684 157.777 86.5885 158.685 85.6685C159.593 84.7485 159.662 83.3296 159.662 83.3296C159.662 83.3296 158.248 83.4095 157.342 84.3295Z" fill="black"/>
<path d="M159.121 90.7284C158.213 91.6484 158.144 93.0673 158.144 93.0673C158.144 93.0673 159.556 92.9874 160.464 92.0674C161.373 91.1475 161.441 89.7285 161.441 89.7285C161.441 89.7285 160.029 89.8045 159.121 90.7284Z" fill="#6C63FF"/>
<path d="M156.502 89.3193C156.502 89.3193 158.558 86.0838 161.447 86.0059" stroke="#6C63FF" stroke-miterlimit="10"/>
<path d="M154.9 87.3642C154.9 87.3642 152.844 84.1287 149.956 84.0508" stroke="#6C63FF" stroke-miterlimit="10"/>
<path d="M154.633 91.9834C154.633 91.9834 156.689 88.7479 159.578 88.6699" stroke="#6C63FF" stroke-miterlimit="10"/>
<path d="M161.351 86.5203C161.645 86.5203 161.884 86.282 161.884 85.9882C161.884 85.6943 161.645 85.4561 161.351 85.4561C161.057 85.4561 160.818 85.6943 160.818 85.9882C160.818 86.282 161.057 86.5203 161.351 86.5203Z" fill="#6C63FF"/>
<path d="M150.004 84.6101C150.299 84.6101 150.538 84.3719 150.538 84.078C150.538 83.7841 150.299 83.5459 150.004 83.5459C149.71 83.5459 149.471 83.7841 149.471 84.078C149.471 84.3719 149.71 84.6101 150.004 84.6101Z" fill="#6C63FF"/>
<path d="M156.146 93.0498C156.146 93.0498 154.09 89.8143 151.202 89.7363" stroke="#6C63FF" stroke-miterlimit="10"/>
<path d="M151.25 90.2956C151.545 90.2956 151.784 90.0574 151.784 89.7636C151.784 89.4697 151.545 89.2314 151.25 89.2314C150.956 89.2314 150.717 89.4697 150.717 89.7636C150.717 90.0574 150.956 90.2956 151.25 90.2956Z" fill="#6C63FF"/>
<path d="M159.617 89.2297C159.911 89.2297 160.15 88.9915 160.15 88.6976C160.15 88.4038 159.911 88.1655 159.617 88.1655C159.322 88.1655 159.084 88.4038 159.084 88.6976C159.084 88.9915 159.322 89.2297 159.617 89.2297Z" fill="#6C63FF"/>
<path d="M167.517 101.058C167.517 101.058 162.56 100.068 161.238 98.7488C159.916 97.4292 153.967 95.1273 153.307 96.7704C152.647 98.4135 144.384 104.033 149.997 105.021C155.609 106.009 163.216 106.34 164.868 105.68C166.521 105.019 167.517 101.058 167.517 101.058Z" fill="#A8A8A8"/>
<path opacity="0.2" d="M149.997 104.409C155.615 105.399 163.216 105.729 164.868 105.068C166.126 104.565 167.001 102.144 167.347 101.029L167.513 101.064C167.513 101.064 166.521 105.023 164.868 105.682C163.216 106.341 155.615 106.011 149.997 105.023C148.376 104.736 147.911 104.066 148.087 103.218C148.229 103.77 148.794 104.197 149.997 104.409Z" fill="black"/>
<path d="M22.1308 117.56C22.1308 117.56 23.7673 119.704 21.375 122.92C18.9826 126.136 17.0101 128.866 17.8089 130.88C17.8089 130.88 21.4179 124.89 24.3552 124.806C27.2924 124.723 25.3609 121.161 22.1308 117.56Z" fill="#6C63FF"/>
<path opacity="0.1" d="M22.131 117.56C22.2736 117.766 22.386 117.992 22.4649 118.23C25.3319 121.59 26.8571 124.726 24.1034 124.806C21.5373 124.88 18.4594 129.459 17.7212 130.617C17.7456 130.706 17.7749 130.794 17.8091 130.88C17.8091 130.88 21.4181 124.89 24.3554 124.806C27.2926 124.723 25.3611 121.161 22.131 117.56Z" fill="black"/>
<path d="M25.1735 120.281C25.1735 121.033 25.0896 121.645 24.9783 121.645C24.8669 121.645 24.783 121.035 24.783 120.281C24.783 119.526 24.8884 119.891 24.9919 119.891C25.0954 119.891 25.1735 119.53 25.1735 120.281Z" fill="#FFD037"/>
<path d="M26.2163 121.179C25.5543 121.54 24.9782 121.764 24.9294 121.665C24.8805 121.565 25.3746 121.207 26.0367 120.848C26.6987 120.489 26.437 120.75 26.4878 120.848C26.5386 120.945 26.8784 120.819 26.2163 121.179Z" fill="#FFD037"/>
<path d="M13.4851 117.56C13.4851 117.56 11.8485 119.704 14.2409 122.92C16.6332 126.136 18.6057 128.866 17.8069 130.878C17.8069 130.878 14.1979 124.888 11.2606 124.804C8.32341 124.721 10.2549 121.161 13.4851 117.56Z" fill="#6C63FF"/>
<path opacity="0.1" d="M13.4851 117.56C13.3424 117.766 13.23 117.992 13.1511 118.23C10.2842 121.59 8.75891 124.726 11.5126 124.806C14.0788 124.88 17.1566 129.459 17.8948 130.617C17.8705 130.706 17.8411 130.794 17.8069 130.88C17.8069 130.88 14.1979 124.89 11.2606 124.806C8.32341 124.723 10.2549 121.161 13.4851 117.56Z" fill="black"/>
<path d="M10.4424 120.281C10.4424 121.033 10.5264 121.645 10.6377 121.645C10.749 121.645 10.833 121.035 10.833 120.281C10.833 119.526 10.7275 119.891 10.624 119.891C10.5205 119.891 10.4424 119.53 10.4424 120.281Z" fill="#FFD037"/>
<path d="M9.39949 121.179C10.0615 121.54 10.6377 121.764 10.6865 121.665C10.7353 121.565 10.2412 121.207 9.57916 120.848C8.91711 120.489 9.1788 120.75 9.12803 120.848C9.07725 120.945 8.73744 120.819 9.39949 121.179Z" fill="#FFD037"/>
<path d="M10.9639 130.597C10.9639 130.597 15.5396 130.457 16.9184 129.476C18.2972 128.496 23.9491 127.332 24.2986 128.892C24.6482 130.451 31.175 136.709 26.0094 136.75C20.8439 136.791 14.0066 135.947 12.6297 135.111C11.2529 134.275 10.9639 130.597 10.9639 130.597Z" fill="#A8A8A8"/>
<path opacity="0.2" d="M26.1032 136.211C20.9376 136.251 14.1003 135.408 12.7235 134.571C11.6747 133.934 11.2568 131.648 11.1182 130.593H10.9658C10.9658 130.593 11.2549 134.277 12.6317 135.113C14.0085 135.949 20.8458 136.795 26.0114 136.752C27.5034 136.741 28.0171 136.211 27.9897 135.427C27.7808 135.906 27.2124 136.201 26.1032 136.211Z" fill="black"/>
</g>
<defs>
<linearGradient id="paint0_linear_443_7196" x1="98.9541" y1="116.351" x2="98.9541" y2="47.24" gradientUnits="userSpaceOnUse">
<stop stop-color="#808080" stop-opacity="0.25"/>
<stop offset="0.54" stop-color="#808080" stop-opacity="0.12"/>
<stop offset="1" stop-color="#808080" stop-opacity="0.1"/>
</linearGradient>
<linearGradient id="paint1_linear_443_7196" x1="113.857" y1="98.8263" x2="127.181" y2="49.2452" gradientUnits="userSpaceOnUse">
<stop stop-color="#808080" stop-opacity="0.25"/>
<stop offset="0.54" stop-color="#808080" stop-opacity="0.12"/>
<stop offset="1" stop-color="#808080" stop-opacity="0.1"/>
</linearGradient>
<linearGradient id="paint2_linear_443_7196" x1="45.4453" y1="139.132" x2="45.4453" y2="30.176" gradientUnits="userSpaceOnUse">
<stop stop-color="#808080" stop-opacity="0.25"/>
<stop offset="0.54" stop-color="#808080" stop-opacity="0.12"/>
<stop offset="1" stop-color="#808080" stop-opacity="0.1"/>
</linearGradient>
<clipPath id="clip0_443_7196">
<rect width="200" height="153" fill="white"/>
</clipPath>
</defs>
</svg>
